/* XPM */
static char * tasto0_xpm[] = {
"40 40 94 2",
"  	c None",
". 	c #FFFFFF",
"+ 	c #FEFEFE",
"@ 	c #E9E9E9",
"# 	c #A7A7A7",
"$ 	c #727272",
"% 	c #4B4B4B",
"& 	c #303030",
"* 	c #292929",
"= 	c #202020",
"- 	c #2B2B2B",
"; 	c #434343",
"> 	c #676767",
", 	c #979797",
"' 	c #D6D6D6",
") 	c #F3F3F3",
"! 	c #3B3B3B",
"~ 	c #010101",
"{ 	c #000000",
"] 	c #222222",
"^ 	c #7C7C7C",
"/ 	c #E3E3E3",
"( 	c #F4F4F4",
"_ 	c #878787",
": 	c #121212",
"< 	c #040404",
"[ 	c #616161",
"} 	c #E1E1E1",
"| 	c #B3B3B3",
"1 	c #1F1F1F",
"2 	c #0A0A0A",
"3 	c #898989",
"4 	c #FCFCFC",
"5 	c #FAFAFA",
"6 	c #6E6E6E",
"7 	c #3F3F3F",
"8 	c #E6E6E6",
"9 	c #F0F0F0",
"0 	c #424242",
"a 	c #1E1E1E",
"b 	c #D3D3D3",
"c 	c #EEEEEE",
"d 	c #353535",
"e 	c #2A2A2A",
"f 	c #626262",
"g 	c #868686",
"h 	c #9C9C9C",
"i 	c #8E8E8E",
"j 	c #6D6D6D",
"k 	c #3A3A3A",
"l 	c #050505",
"m 	c #131313",
"n 	c #D2D2D2",
"o 	c #F7F7F7",
"p 	c #414141",
"q 	c #1A1A1A",
"r 	c #828282",
"s 	c #E0E0E0",
"t 	c #EFEFEF",
"u 	c #181818",
"v 	c #DDDDDD",
"w 	c #090909",
"x 	c #ABABAB",
"y 	c #2E2E2E",
"z 	c #F5F5F5",
"A 	c #2D2D2D",
"B 	c #F1F1F1",
"C 	c #555555",
"D 	c #696969",
"E 	c #151515",
"F 	c #F2F2F2",
"G 	c #7A7A7A",
"H 	c #BFBFBF",
"I 	c #3D3D3D",
"J 	c #767676",
"K 	c #FDFDFD",
"L 	c #080808",
"M 	c #EBEBEB",
"N 	c #505050",
"O 	c #A5A5A5",
"P 	c #E4E4E4",
"Q 	c #515151",
"R 	c #020202",
"S 	c #C0C0C0",
"T 	c #ECECEC",
"U 	c #C3C3C3",
"V 	c #C6C6C6",
"W 	c #5F5F5F",
"X 	c #A2A2A2",
"Y 	c #1D1D1D",
"Z 	c #A3A3A3",
"` 	c #ADADAD",
" .	c #393939",
"..	c #8A8A8A",
". . . . . . . . . . . . . . . . . . . . . . . . . . . . . . . . . . . . . . . . ",
". . . . . . . . . . . . . . . . . . . . . . . . . . . . . . . . . . . . . . . . ",
". . . . . . . . . . . . . . . . . . . . . . . . . . . . . . . . . . . . . . . . ",
". . . . . . . . . . . . . . . . . . . . . . . . . . . . . . . . . . . . . . . . ",
". . . . . . . . . . . . . . . . . . . . . . . . . . . . . . . . . . . . . . . . ",
". . . . . . . . . . . . . . . . . . . . . . . . . . . . . . . . . . . . . . . . ",
". . . . . . . . . . . . . . . . . . . . . . . . . . . . . . . . . . . . . . . . ",
". . . . . . . . . . . . . . . . . . . . . . . . . . . . . . . . . . . . . . . . ",
". . . . . . . . . . . . . . . . . . . . . . . . . . . . . . . . . . . . . . . . ",
". . . . . . . . . . . . . . . . . . . . . . . . . . . . . . . . . . . . . . . . ",
". . . . . . . . . . . . . . . . + . . . . . . . . . . . . . . . . . . . . . . . ",
". . . . . . . . . . . . . . . . . . . . . . . . . . . . . . . . . . . . . . . . ",
". . . . . . . . . . . . . . . . . . . . . . . . . . . . . . . . . . . . . . . . ",
". . . . . . . . . . . . . . . . . . . . . . . . . . . . . . . . . . . . . . . . ",
". . . . . . . . . . . . . . . . . . . . . . . . . . . . . . . . . . . . . . . . ",
". . . . . . . . . . . . . . . . . . . . . . . . . . . . . . . . . . . . . . . . ",
". . . . . . . . . . . . . . . . . . . . . . . . . . . . . . . . . . . . . . . . ",
". . . . . . . . . . . . . . . . . . . . . . . . . . . . . . . . . . . . . . . . ",
". . . . . . . . . . . . . . . . . . . . . . . . . . . . . . . . . . . . . . . . ",
". . . . . . . . . . . . . . @ # $ % & * = - ; > , ' . . . . . . . . . . . . . . ",
". . . . . . . . . . . ) , ! ~ { { { { { { { { { { { ] ^ / . . . . . . . . . . . ",
". . . . . . . . . ( _ : { { { { { { { { { { { { { { { { < [ } . . . . . . . . . ",
". . . . . . . . | 1 { { { { { { { { { { { { { { { { { { { { 2 3 4 . . . . . . . ",
". . . . . . 5 6 ~ { { { { { { { { { { { { { { { { { { { { { { { 7 8 . . . . . . ",
". . . . . 9 0 { { { { { { { { { { { { { { { { { { { { { { { { { { a b . . . . . ",
". . . . c d { { { { { { { { { ~ e f g h h i j k l { { { { { { { { { m n . . . . ",
". . . o p { { { { { { { { q r s . . . . . . . . t h & { { { { { { { { u v . . . ",
". . . > { { { { { { { w g o . . . . . . . . . . . . + x a { { { { { { { y z . . ",
". . x { { { { { { { A ' . . . . . . . . . . . . . . . . B C { { { { { { { D . . ",
". c E { { { { { { ; F . . . . . . . . . . . . . . . . . . + G { { { { { { ~ H . ",
". 6 { { { { { { I o . . . . . . . . . . . . . . . . . . . . . J { { { { { { y K ",
"} L { { { { { 1 M . . . . . . . . . . . . . . . . . . . . . . + N { { { { { { O ",
"P Q ~ { { { R S . . . . . . . . . . . . . . . . . . . . . . . . T u { { { { & U ",
". . V ! { { W . . . . . . . . . . . . . . . . . . . . . . . . . . X { { Y Z K . ",
". . . . ` A } . . . . . . . . . . . . . . . . . . . . . . . . . . K  ...o . . . ",
". . . . . + . . . . . . . . . . . . . . . . . . . . . . . . . . . . + . . . . . ",
". . . . . . . . . . . . . . . . . . . . . . . . . . . . . . . . . . . . . . . . ",
". . . . . . . . . . . . . . . . . . . . . . . . . . . . . . . . . . . . . . . . ",
". . . . . . . . . . . . . . . . . . . . . . . . . . . . . . . . . . . . . . . . ",
". . . . . . . . . . . . . . . . . . . . . . . . . . . . . . . . . . . . . . . . "};
