/* XPM */
static char * tasto1_xpm[] = {
"40 40 11 1",
" 	c None",
".	c #FFFFFF",
"+	c #C9C9C9",
"@	c #C3C3C3",
"#	c #F2F2F2",
"$	c #1A1A1A",
"%	c #000000",
"&	c #C7C7C7",
"*	c #FEFEFE",
"=	c #CCCCCC",
"-	c #C6C6C6",
"........................................",
"........................................",
"........................................",
"...............+@@@@@#..................",
"...............$%%%%%&..................",
"...............$%%%%%&..................",
"...............$%%%%%&..................",
"...............$%%%%%&..................",
"...............$%%%%%&..................",
"...............$%%%%%&..................",
"...............$%%%%%&..................",
"...............$%%%%%&..................",
"...............$%%%%%&..................",
"...............$%%%%%&..................",
"...............$%%%%%&..................",
"...............$%%%%%&..................",
"...............$%%%%%&..................",
"...............$%%%%%&..................",
"...............$%%%%%&..................",
"...............$%%%%%&..................",
"...............$%%%%%&..................",
"...............$%%%%%&..................",
"...............$%%%%%&..................",
"............*..$%%%%%&..................",
"...........*...$%%%%%&..................",
"...........*...$%%%%%&..................",
"...............$%%%%%&..................",
"...............$%%%%%&..................",
"...............$%%%%%&..................",
"........*......$%%%%%&..................",
"...............$%%%%%&..................",
"...............$%%%%%&..................",
"...............$%%%%%&..................",
"...............$%%%%%&..................",
"...............$%%%%%&..................",
"...............$%%%%%&..................",
"...............=-----#..................",
"........................................",
"........................................",
"........................................"};
