/* XPM */
static char * tasto2caso4_xpm[] = {
"40 40 152 2",
"  	c None",
". 	c #FFFFFF",
"+ 	c #F9F9F9",
"@ 	c #666666",
"# 	c #E1E1E1",
"$ 	c #A7A7A7",
"% 	c #8E8E8E",
"& 	c #FBFBFB",
"* 	c #535353",
"= 	c #000000",
"- 	c #252525",
"; 	c #E6E6E6",
"> 	c #EEEEEE",
", 	c #B0B0B0",
"' 	c #050505",
") 	c #010101",
"! 	c #979797",
"~ 	c #FDFDFD",
"{ 	c #5C5C5C",
"] 	c #2B2B2B",
"^ 	c #EBEBEB",
"/ 	c #818181",
"( 	c #373737",
"_ 	c #929292",
": 	c #EAEAEA",
"< 	c #B8B8B8",
"[ 	c #070707",
"} 	c #020202",
"| 	c #A1A1A1",
"1 	c #FEFEFE",
"2 	c #656565",
"3 	c #323232",
"4 	c #EFEFEF",
"5 	c #D4D4D4",
"6 	c #040404",
"7 	c #4A4A4A",
"8 	c #A5A5A5",
"9 	c #F4F4F4",
"0 	c #C0C0C0",
"a 	c #0A0A0A",
"b 	c #030303",
"c 	c #AAAAAA",
"d 	c #E7E7E7",
"e 	c #191919",
"f 	c #393939",
"g 	c #F3F3F3",
"h 	c #0D0D0D",
"i 	c #5D5D5D",
"j 	c #C8C8C8",
"k 	c #4B4B4B",
"l 	c #151515",
"m 	c #404040",
"n 	c #F6F6F6",
"o 	c #7E7E7E",
"p 	c #7F7F7F",
"q 	c #CECECE",
"r 	c #111111",
"s 	c #3D3D3D",
"t 	c #F5F5F5",
"u 	c #101010",
"v 	c #484848",
"w 	c #F8F8F8",
"x 	c #D2D2D2",
"y 	c #747474",
"z 	c #D5D5D5",
"A 	c #363636",
"B 	c #F1F1F1",
"C 	c #C7C7C7",
"D 	c #505050",
"E 	c #DADADA",
"F 	c #8A8A8A",
"G 	c #292929",
"H 	c #6A6A6A",
"I 	c #CDCDCD",
"J 	c #5A5A5A",
"K 	c #2F2F2F",
"L 	c #EDEDED",
"M 	c #848484",
"N 	c #7C7C7C",
"O 	c #616161",
"P 	c #D3D3D3",
"Q 	c #141414",
"R 	c #E9E9E9",
"S 	c #222222",
"T 	c #D1D1D1",
"U 	c #585858",
"V 	c #FCFCFC",
"W 	c #AFAFAF",
"X 	c #232323",
"Y 	c #E5E5E5",
"Z 	c #626262",
"` 	c #202020",
" .	c #1E1E1E",
"..	c #DFDFDF",
"+.	c #777777",
"@.	c #313131",
"#.	c #9D9D9D",
"$.	c #F2F2F2",
"%.	c #F7F7F7",
"&.	c #D8D8D8",
"*.	c #949494",
"=.	c #3F3F3F",
"-.	c #161616",
";.	c #D6D6D6",
">.	c #898989",
",.	c #0C0C0C",
"'.	c #C6C6C6",
").	c #545454",
"!.	c #090909",
"~.	c #BFBFBF",
"{.	c #A3A3A3",
"].	c #989898",
"^.	c #676767",
"/.	c #060606",
"(.	c #B6B6B6",
"_.	c #B7B7B7",
":.	c #707070",
"<.	c #ADADAD",
"[.	c #E0E0E0",
"}.	c #7A7A7A",
"|.	c #B9B9B9",
"1.	c #9F9F9F",
"2.	c #8C8C8C",
"3.	c #858585",
"4.	c #C1C1C1",
"5.	c #8F8F8F",
"6.	c #E2E2E2",
"7.	c #3E3E3E",
"8.	c #9A9A9A",
"9.	c #CFCFCF",
"0.	c #DEDEDE",
"a.	c #797979",
"b.	c #727272",
"c.	c #CCCCCC",
"d.	c #1A1A1A",
"e.	c #DBDBDB",
"f.	c #696969",
"g.	c #1F1F1F",
"h.	c #606060",
"i.	c #2A2A2A",
"j.	c #575757",
"k.	c #242424",
"l.	c #4E4E4E",
"m.	c #FAFAFA",
"n.	c #464646",
"o.	c #383838",
"p.	c #474747",
"q.	c #E4E4E4",
"r.	c #303030",
"s.	c #555555",
"t.	c #595959",
"u.	c #515151",
". . . . . . . . . . . . . . . . . . . . . . . . . . . . . . . . . . . . . . . . ",
". . . . . . . . . . . . . . . . . . . . . . . . . . . . . . . . . . . . . . . . ",
". . . . . . + @ # . . . . . . . . . . . . . . . . . . . . . . . . $ % . . . . . ",
". . . . . & * = - ; . . . . . . . . > . . . . . . . . . . . . . , ' ) ! . . . . ",
". . . . ~ { = = = ] ^ . . . . . . . / ( _ : . . . . . . . . . < [ = = } | . . . ",
". . . 1 2 = = = = = 3 4 . . . . . . 5 = = 6 7 8 9 . . . . . 0 a = = = = b c . . ",
". . . d e = = = = = = f g . . . . . . ] = = = = h i > . . j h = = = = = = k . . ",
". . . . 5 l = = = = = = m n . . . . . o = = = = = p . . q r = = = = = = s t . . ",
". . . . . q u = = = = = = v w . . . . x = = = = y . . z l = = = = = = A B . . . ",
". . . . . . C h = = = = = = D E F . . . G = = H I J z e = = = = = = K L . . . . ",
". . . . . . . 0 a = = = = = = [ = M . . N = O P Q = ' = = = = = = G R . . . . . ",
". . . . . . . . < [ = = = = = = = S 9 . T U V W 6 = = = = = = = X Y . . . . . . ",
". . . . . . . . . W ' = = = = = = Z . . . & . : ` = = = = = =  .... . . . . . . ",
". . . . . . . . . . $ b = = = = = = +.. . . > @.= = = = = = e E . . . . . . . . ",
". . . . . . . . . . . #.) = = = = = = / . $.( = = = = = = Q 5 . . . . . . . . . ",
". . . . . . . . . %.&.. *.) = = = = = = M =.= = = = = = u I + c . . . . . . . . ",
". . . . . . . . + k -.;.. >.= = = = = = = = = = = = = ,.'.& ).= % . . . . . . . ",
". . . . B ~ . & ).= = X & . p = = = = = = = = = = = !.~.. {.= = ) ].. . . . . . ",
". . . . F @ 1 ^.= = /.(.. . . y = = = = = = = = = [ _.. . 1 @ = = } q . . . . . ",
". . . . ( = :.0 a 6 <.. . . . 1 H = = = = = = = 6 W . . . . ~ { = y . . . . . . ",
". . . [.) = = }.|.8 . . . . . 1 H = = = = = = = [ |.. . . . . & 1.1 . . . . . . ",
". . . 2.= = = = 3.. . . . . . y = = = = = = = = = a 4.. . . . . . . . . . . . . ",
". . . f = = = = = 5.. . . . p = = = = = = = = = = = h j . . . . . . . . . . . . ",
". . 6.) = = = ) 7.8.1 . . >.= = = = = = = = = = = = = r 9.. . . . . . . . . . . ",
". . 5.= = G 3.0.. . . . *.) = = = = = = a.=.= = = = = = l z . . . . . . . . . . ",
". . * b.c.. . . . . . #.) = = = = = = y . $.( = = = = = = d.e.. . . . . . . . . ",
". . ~ . . . . . . . $ b = = = = = = f.1 . . > @.= = = = = = g.# . . . . . . . . ",
". . . . . . . . . W ' = = = = = = h.~ . . . . : i.= = = = = = - ; . . . . . . . ",
". . . . . . . . < [ = = = = = = j.V . . . . . . ; k.= = = = = = ] ^ . . . . . . ",
". . . . . . . 0 a = = = = = = l.m.. . . . . . . . [.g.= = = = = = @.4 . . . . . ",
". . . . . . C h = = = = = = n.w . . . . . . . . . . e.e = = = = = = o.$.. . . . ",
". . . . . q u = = = = = = 7.t . . . . . . . . . . . . z l = = = = = = =.t . . . ",
". . . . 5 l = = = = = = ( $.. . . . . . . . . . . . . . q r = = = = = = p.w . . ",
". . . q.e = = = = = = r.> . . . . . . . . . . . . . . . . j h = = = = = = s.. . ",
". . . V t.= = = = = i.: . . . . . . . . . . . . . . . . . . 0 a = = = = b c . . ",
". . . . & u.= = = k.Y . . . . . . . . . . . . . . . . . . . . < [ = = } | . . . ",
". . . . . w v =  .[.. . . . . . . . . . . . . . . . . . . . . . , ' ) ! . . . . ",
". . . . . . n t.E . . . . . . . . . . . . . . . . . . . . . . . . $ % . . . . . ",
". . . . . . . . . . . . . . . . . . . . . . . . . . . . . . . . . . . . . . . . ",
". . . . . . . . . . . . . . . . . . . . . . . . . . . . . . . . . . . . . . . . "};
