/* XPM */
static char * tasto4antiorario_xpm[] = {
"40 40 116 2",
"  	c None",
". 	c #FFFFFF",
"+ 	c #EDEDED",
"@ 	c #A8A8A8",
"# 	c #A4A4A4",
"$ 	c #EEEEEE",
"% 	c #F6F6F6",
"& 	c #8C8C8C",
"* 	c #101010",
"= 	c #040404",
"- 	c #D7D7D7",
"; 	c #D4D4D4",
"> 	c #030303",
", 	c #141414",
"' 	c #F9F9F9",
") 	c #FCFCFC",
"! 	c #A1A1A1",
"~ 	c #1F1F1F",
"{ 	c #000000",
"] 	c #484848",
"^ 	c #FEFEFE",
"/ 	c #464646",
"( 	c #212121",
"_ 	c #828282",
": 	c #9D9D9D",
"< 	c #989898",
"[ 	c #868686",
"} 	c #E2E2E2",
"| 	c #070707",
"1 	c #090909",
"2 	c #C9C9C9",
"3 	c #C6C6C6",
"4 	c #080808",
"5 	c #E3E3E3",
"6 	c #797979",
"7 	c #171717",
"8 	c #D1D1D1",
"9 	c #CFCFCF",
"0 	c #111111",
"a 	c #7C7C7C",
"b 	c #F4F4F4",
"c 	c #242424",
"d 	c #121212",
"e 	c #BBBBBB",
"f 	c #B8B8B8",
"g 	c #262626",
"h 	c #C5C5C5",
"i 	c #050505",
"j 	c #787878",
"k 	c #F5F5F5",
"l 	c #767676",
"m 	c #020202",
"n 	c #959595",
"o 	c #222222",
"p 	c #9A9A9A",
"q 	c #F7F7F7",
"r 	c #1D1D1D",
"s 	c #999999",
"t 	c #757575",
"u 	c #131313",
"v 	c #646464",
"w 	c #A9A9A9",
"x 	c #DEDEDE",
"y 	c #FBFBFB",
"z 	c #DDDDDD",
"A 	c #A7A7A7",
"B 	c #616161",
"C 	c #7F7F7F",
"D 	c #777777",
"E 	c #7B7B7B",
"F 	c #969696",
"G 	c #060606",
"H 	c #C8C8C8",
"I 	c #232323",
"J 	c #CACACA",
"K 	c #0D0D0D",
"L 	c #818181",
"M 	c #F8F8F8",
"N 	c #EAEAEA",
"O 	c #7A7A7A",
"P 	c #151515",
"Q 	c #161616",
"R 	c #FAFAFA",
"S 	c #B5B5B5",
"T 	c #6A6A6A",
"U 	c #292929",
"V 	c #F3F3F3",
"W 	c #B9B9B9",
"X 	c #B2B2B2",
"Y 	c #ADADAD",
"Z 	c #D2D2D2",
"` 	c #DBDBDB",
" .	c #CDCDCD",
"..	c #010101",
"+.	c #555555",
"@.	c #D3D3D3",
"#.	c #5B5B5B",
"$.	c #DADADA",
"%.	c #FDFDFD",
"&.	c #6C6C6C",
"*.	c #2E2E2E",
"=.	c #444444",
"-.	c #E0E0E0",
";.	c #666666",
">.	c #3D3D3D",
",.	c #A2A2A2",
"'.	c #393939",
").	c #E8E8E8",
"!.	c #F1F1F1",
"~.	c #ECECEC",
"{.	c #343434",
"].	c #B3B3B3",
"^.	c #2F2F2F",
"/.	c #ACACAC",
"(.	c #D0D0D0",
"_.	c #A6A6A6",
". . . . . . . . . . . . . . . . . . . . . . . . . . . . . . . . . . . . . . . . ",
". . . . . . . . . . . . . . . . . . . . . . . . . . . . . . . . . . . . . . . . ",
". . . . . . . . . . . . . . . . . . . . . . . . . . . . . . . . . . . . . . . . ",
". . . . . . . . . . . . . . . . . . . . . . . . . . . . . . . . . . . . . . . . ",
". . . . . . . . . . . . . . . . . . . . . . . . . . . . . . . . . . . . . . . . ",
". . . . . . . . . . . . . . . . . . . . . . . . . . . . . . . . . . . . . . . . ",
". . . . . . . . . . . . . . . . . . . . . . . . . . . . . . . . . . . . . . . . ",
". . . . + @ . . . . . . . . . . . . . . . . . . . . . . . . . . . . # $ . . . . ",
". . % & * = - . . . . . . . . . . . . . . . . . . . . . . . . . . ; > , & ' . . ",
") ! ~ { { { ] . . . . . . . . . . . . . . . . . . . . . . . . . ^ / { { { ( # ^ ",
"_ { { { { { { : . . . . . . . . . . . . . . . . . . . . . . . . < { { { { { { [ ",
"} | { { { { { 1 2 . . . . . . . . . . . . . . . . . . . . . . 3 4 { { { { { 1 5 ",
". 6 { { { { { { 7 8 . . . . . . . . . . . . . . . . . . . . 9 0 { { { { { { a . ",
". b c { { { { { { d e . . . . . . . . . . . . . . . . . . f * { { { { { { g % . ",
". . h i { { { { { { > j % . . . . . . . . . . . . . . k l m { { { { { { | 2 . . ",
". . . n { { { { { { { { o p q . . . . . . . . . . % < r { { { { { { { { s . . . ",
". . . . t { { { { { { { { { u v w x y . . y z A B * { { { { { { { { { C . . . . ",
". . . . . D { { { { { { { { { { { { = 0 0 = { { { { { { { { { { { { E . . . . . ",
". . . . . . F = { { { { { { { { { { { { { { { { { { { { { { { { G s . . . . . . ",
". . . . . . . H I { { { { { { { { { { { { { { { { { { { { { { g J . . . . . . . ",
". . . . . . . . q C K { { { { { { { { { { { { { { { { { { K L M . . . . . . . . ",
". . . . . . . . . . N O P { { { { { { { { { { { { { { Q E N . . . . . . . . . . ",
". . . . . . . . . . . . R S T U m { { { { { { m U T S R . . . . . . . . . . . . ",
". . . . . . . . . . . . . . . . V 8 W X Y f Z b . . . . . . . . . . . . . . . . ",
". . . . . . . . . . . . . . . . . . . . . . . . . . . . . . . . . . . . . . . . ",
". . . . . . . . . . . . . . . . . . . . . . . . . . . . . . . . . . . . . . . . ",
". . . . . . . . . . . . . . . . . . . . . . . . . . . . . . . . . . . . . . . . ",
". . . . . . . . . . . . . . . . . . . . . . . . . . . . . . . . . . . . . . . . ",
". . . . . . . . . . . . . . . . . . . . . . . . . . . . . . . . . . . . . . . . ",
". . . . . . . . . . . . . . . . . . . . . . . `  .. . . . . . . . . . . . . . . ",
". . . . . . . . . . . . . . . . . . . . . . . W ..+.@.. . . . . . . . . . . . . ",
". . . . . . . . . . . . . . . . . . . . . . . W { { m #.$.. . . . . . . . . . . ",
". . . . . . . . %.1 1 1 1 &.. . . . *.1 1 1 =.W { { { { > B -.. . . . . . . . . ",
". . . . . . . . ) { { { { ;.. . . . g { { { >.W { { { { { { i ,.. . . . . . . . ",
". . . . . . . . ) { { { { ;.. . . . g { { { >.W { { { { { '.e . . . . . . . . . ",
". . . . . . . . . ).).).).!.. . . . ~.).).).$ W { { { {.].^ . . . . . . . . . . ",
". . . . . . . . . . . . . . . . . . . . . . . W { ^./.^ . . . . . . . . . . . . ",
". . . . . . . . . . . . . . . . . . . . . . . (._.%.. . . . . . . . . . . . . . ",
". . . . . . . . . . . . . . . . . . . . . . . . . . . . . . . . . . . . . . . . ",
". . . . . . . . . . . . . . . . . . . . . . . . . . . . . . . . . . . . . . . . "};
