/* XPM */
static char * tasto2_1caso2_xpm[] = {
"40 40 158 2",
"  	c None",
". 	c #FFFFFF",
"+ 	c #AAAAAA",
"@ 	c #555555",
"# 	c #F8F8F8",
"$ 	c #F5F5F5",
"% 	c #4B4B4B",
"& 	c #A1A1A1",
"* 	c #030303",
"= 	c #000000",
"- 	c #474747",
"; 	c #F1F1F1",
"> 	c #3D3D3D",
", 	c #979797",
"' 	c #020202",
") 	c #3F3F3F",
"! 	c #F2F2F2",
"~ 	c #EDEDED",
"{ 	c #363636",
"] 	c #8E8E8E",
"^ 	c #010101",
"/ 	c #383838",
"( 	c #EFEFEF",
"_ 	c #CECECE",
": 	c #E9E9E9",
"< 	c #2F2F2F",
"[ 	c #A7A7A7",
"} 	c #050505",
"| 	c #313131",
"1 	c #EBEBEB",
"2 	c #FEFEFE",
"3 	c #747474",
"4 	c #989898",
"5 	c #E5E5E5",
"6 	c #292929",
"7 	c #B0B0B0",
"8 	c #070707",
"9 	c #2B2B2B",
"0 	c #E6E6E6",
"a 	c #9F9F9F",
"b 	c #DFDFDF",
"c 	c #232323",
"d 	c #B8B8B8",
"e 	c #0A0A0A",
"f 	c #252525",
"g 	c #E1E1E1",
"h 	c #FBFBFB",
"i 	c #5C5C5C",
"j 	c #DADADA",
"k 	c #1E1E1E",
"l 	c #C0C0C0",
"m 	c #0D0D0D",
"n 	c #1F1F1F",
"o 	c #DBDBDB",
"p 	c #FDFDFD",
"q 	c #666666",
"r 	c #545454",
"s 	c #F9F9F9",
"t 	c #D4D4D4",
"u 	c #191919",
"v 	c #C8C8C8",
"w 	c #111111",
"x 	c #1A1A1A",
"y 	c #D5D5D5",
"z 	c #A3A3A3",
"A 	c #CDCDCD",
"B 	c #141414",
"C 	c #151515",
"D 	c #CFCFCF",
"E 	c #C6C6C6",
"F 	c #101010",
"G 	c #BFBFBF",
"H 	c #0C0C0C",
"I 	c #C1C1C1",
"J 	c #B7B7B7",
"K 	c #090909",
"L 	c #EEEEEE",
"M 	c #E0E0E0",
"N 	c #242424",
"O 	c #B9B9B9",
"P 	c #5A5A5A",
"Q 	c #7F7F7F",
"R 	c #5D5D5D",
"S 	c #2A2A2A",
"T 	c #CBCBCB",
"U 	c #202020",
"V 	c #040404",
"W 	c #F4F4F4",
"X 	c #EAEAEA",
"Y 	c #C7C7C7",
"Z 	c #9D9D9D",
"` 	c #AFAFAF",
" .	c #D3D3D3",
"..	c #6A6A6A",
"+.	c #A5A5A5",
"@.	c #373737",
"#.	c #676767",
"$.	c #FCFCFC",
"%.	c #616161",
"&.	c #4A4A4A",
"*.	c #D6D6D6",
"=.	c #585858",
"-.	c #DCDCDC",
";.	c #8B8B8B",
">.	c #D1D1D1",
",.	c #7C7C7C",
"'.	c #929292",
").	c #4F4F4F",
"!.	c #818181",
"~.	c #D2D2D2",
"{.	c #7E7E7E",
"].	c #696969",
"^.	c #626262",
"/.	c #FAFAFA",
"(.	c #777777",
"_.	c #606060",
":.	c #848484",
"<.	c #222222",
"[.	c #575757",
"}.	c #636363",
"|.	c #E8E8E8",
"1.	c #8A8A8A",
"2.	c #4E4E4E",
"3.	c #767676",
"4.	c #464646",
"5.	c #505050",
"6.	c #3E3E3E",
"7.	c #898989",
"8.	c #484848",
"9.	c #F6F6F6",
"0.	c #949494",
"a.	c #404040",
"b.	c #F3F3F3",
"c.	c #303030",
"d.	c #B6B6B6",
"e.	c #393939",
"f.	c #ADADAD",
"g.	c #060606",
"h.	c #161616",
"i.	c #D8D8D8",
"j.	c #323232",
"k.	c #9A9A9A",
"l.	c #8F8F8F",
"m.	c #F7F7F7",
"n.	c #858585",
"o.	c #595959",
"p.	c #DEDEDE",
"q.	c #7A7A7A",
"r.	c #707070",
"s.	c #535353",
"t.	c #515151",
"u.	c #CCCCCC",
"v.	c #656565",
"w.	c #E4E4E4",
"x.	c #727272",
"y.	c #8C8C8C",
"z.	c #E7E7E7",
"A.	c #E2E2E2",
". . . . . . . . . . . . . . . . . . . . . . . . . . . . . . . . . . . . . . . . ",
". . . . . . . . . . . . . . . . . . . . . . . . . . . . . . . . . . . . . . . . ",
". . . . . + @ # . . . . . . . . . . . . . . . . . . . . . . . . $ % + . . . . . ",
". . . . & * = - $ . . . . . . . . . . . . . . . . . . . . . . ; > = * & . . . . ",
". . . , ' = = = ) ! . . . . . . . . . . . . . . . . . . . . ~ { = = = ' , . . . ",
". . ] ^ = = = = = / ( . . . . . . . . . . _ . . . . . . . : < = = = = = ^ ] . . ",
". . [ } = = = = = = | 1 . . . . . . . 2 3 ' 4 . . . . . 5 6 = = = = = = } [ . . ",
". . . 7 8 = = = = = = 9 0 . . . . . . a = = ^ ] . . . b c = = = = = = 8 7 . . . ",
". . . . d e = = = = = = f g . . . . . h i = = = + . j k = = = = = = e d . . . . ",
". . . . . l m = = = = = = n o . . . . . p q = r s t u = = = = = = m l . . . . . ",
". . . . . . v w = = = = = = x y . . . . . 2 z h A B = = = = = = w v . . . . . . ",
". . . . . . . _ C = = = = = = C D . . . . . . E F = = = = = = C _ . . . . . . . ",
". . . . . . . . y u = = = = = = w v . . . . G H = = = = = = u y . . . . . . . . ",
". . . . . . . . . o n = = = = = = m I . . J K = = = = = = } y . . L . . . . . . ",
". . . . . . . . . . M N = = = = = = e O 1 3 * = = = = = = = P . Q R . . . . . . ",
". . . . . . . . . . . 0 S = = = = = = K T . z * = = = U V B A 3 = m W . . . . . ",
". . . . . . . . . . . . X | = = = = = = w Y . Z = = | X `  ...= = = +.. . . . . ",
". . . . . . . . . . . . . L @.= = = = = = m l . #.@.L . $.%.= = = = &.. . . . . ",
". . . . . . . . . . . . . . ! ) = = = = = = e d *.! . h =.= = = = = V X . . . . ",
". . . . . . . . . . . . . . . -.- = = = = = = 8 ;.. . . >.,.6 = = = = '.. . . . ",
". . . . . . . . . . . . . 2 3 j # ).= = = = = = = !.. . . . . ~.{.9 = @.. . . . ",
". . . . . . . . . . . . p ].= ^.. /.=.= = = = = = = (.. W . . . . . t !.L . . . ",
". . . . . . . . . . . $._.= = = :.. $.%.= = = = = = = ^.<.:.. . . . . . . . . . ",
". . . . . . . . . . /.[.= = = = = }.|.; ..= = = = = = = = = 1.. . . . . . . . . ",
". . . . . . . . . # 2.= = = = = = = 3.2 2 3 = = = = = = = 8 j . . . . . . . . . ",
". . . . . . . . $ 4.= = = = = = = Q . . . . Q = = = = = = = 5.# . . . . . . . . ",
". . . . . . . ! 6.= = = = = = ^ 7.. . . . . . 7.^ = = = = = = 8.9.. . . . . . . ",
". . . . . . L @.= = = = = = ^ 0.. . . . . . h . 0.^ = = = = = = a.b.. . . . . . ",
". . . . . X c.= = = = = = * Z . . . . . . d.c *.. Z * = = = = = = e.( . . . . . ",
". . . . 5 S = = = = = = } [ . . 2 . . . f.g.= h.i.. [ } = = = = = = j.1 . . . . ",
". . . M N = = = = = = 8 ` . . . k.l.. +.V = = % m.. . ` 8 = = = = = = 9 0 . . . ",
". . j k = = = = = = e d . . . . 6.= n.O e = r s . . . . d e = = = = = = f g . . ",
". . o.= = = = = = m l . . . . p.^ = = q.l #.h . . . . . . l m = = = = = = q . . ",
". . 9.8.= = = = F Y . . . . . n.= = = = r.2 . . . . . . . . Y F = = = = s.s . . ",
". . . # t.= = C _ . . . . . . 6 = = = = = q p . . . . . . . . _ C = = i h . . . ",
". . . . h o.u t . . . . . . u.= = = = ^ @.1.; . . . . . . . . . t u v.p . . . . ",
". . . . . $.w.. . . . . . . x.= ^ e.y.M . . . . . . . . . . . . . z.2 . . . . . ",
". . . . . . . . . . . . . p s.l.A.. . . . . . . . . . . . . . . . . . . . . . . ",
". . . . . . . . . . . . . . . . . . . . . . . . . . . . . . . . . . . . . . . . ",
". . . . . . . . . . . . . . . . . . . . . . . . . . . . . . . . . . . . . . . . "};
