/* XPM */
static char * tasto2_1caso1_xpm[] = {
"40 40 158 2",
"  	c None",
". 	c #FFFFFF",
"+ 	c #8E8E8E",
"@ 	c #A7A7A7",
"# 	c #E1E1E1",
"$ 	c #666666",
"% 	c #F9F9F9",
"& 	c #979797",
"* 	c #010101",
"= 	c #050505",
"- 	c #B0B0B0",
"; 	c #EEEEEE",
"> 	c #E6E6E6",
", 	c #252525",
"' 	c #000000",
") 	c #535353",
"! 	c #FBFBFB",
"~ 	c #A1A1A1",
"{ 	c #020202",
"] 	c #070707",
"^ 	c #B8B8B8",
"/ 	c #EAEAEA",
"( 	c #929292",
"_ 	c #373737",
": 	c #818181",
"< 	c #EBEBEB",
"[ 	c #2B2B2B",
"} 	c #5C5C5C",
"| 	c #FDFDFD",
"1 	c #AAAAAA",
"2 	c #030303",
"3 	c #0A0A0A",
"4 	c #C0C0C0",
"5 	c #F4F4F4",
"6 	c #A5A5A5",
"7 	c #4A4A4A",
"8 	c #040404",
"9 	c #D4D4D4",
"0 	c #EFEFEF",
"a 	c #323232",
"b 	c #656565",
"c 	c #FEFEFE",
"d 	c #4B4B4B",
"e 	c #0D0D0D",
"f 	c #C8C8C8",
"g 	c #5D5D5D",
"h 	c #F3F3F3",
"i 	c #393939",
"j 	c #191919",
"k 	c #E7E7E7",
"l 	c #F5F5F5",
"m 	c #3D3D3D",
"n 	c #111111",
"o 	c #CECECE",
"p 	c #7F7F7F",
"q 	c #7E7E7E",
"r 	c #F6F6F6",
"s 	c #404040",
"t 	c #151515",
"u 	c #F1F1F1",
"v 	c #363636",
"w 	c #D5D5D5",
"x 	c #747474",
"y 	c #D2D2D2",
"z 	c #F8F8F8",
"A 	c #484848",
"B 	c #101010",
"C 	c #EDEDED",
"D 	c #2F2F2F",
"E 	c #5A5A5A",
"F 	c #CDCDCD",
"G 	c #6A6A6A",
"H 	c #292929",
"I 	c #8A8A8A",
"J 	c #DADADA",
"K 	c #505050",
"L 	c #C7C7C7",
"M 	c #E9E9E9",
"N 	c #141414",
"O 	c #D3D3D3",
"P 	c #616161",
"Q 	c #7C7C7C",
"R 	c #848484",
"S 	c #E5E5E5",
"T 	c #232323",
"U 	c #AFAFAF",
"V 	c #FCFCFC",
"W 	c #585858",
"X 	c #D1D1D1",
"Y 	c #222222",
"Z 	c #DFDFDF",
"` 	c #1E1E1E",
" .	c #202020",
"..	c #626262",
"+.	c #313131",
"@.	c #777777",
"#.	c #F2F2F2",
"$.	c #9D9D9D",
"%.	c #676767",
"&.	c #D6D6D6",
"*.	c #8B8B8B",
"=.	c #949494",
"-.	c #D8D8D8",
";.	c #F7F7F7",
">.	c #545454",
",.	c #C6C6C6",
"'.	c #0C0C0C",
").	c #898989",
"!.	c #161616",
"~.	c #989898",
"{.	c #A3A3A3",
"].	c #BFBFBF",
"^.	c #090909",
"/.	c #B7B7B7",
"(.	c #B6B6B6",
"_.	c #060606",
":.	c #CBCBCB",
"<.	c #ADADAD",
"[.	c #707070",
"}.	c #9F9F9F",
"|.	c #B9B9B9",
"1.	c #7A7A7A",
"2.	c #E0E0E0",
"3.	c #C1C1C1",
"4.	c #E8E8E8",
"5.	c #767676",
"6.	c #858585",
"7.	c #8C8C8C",
"8.	c #4F4F4F",
"9.	c #FAFAFA",
"0.	c #636363",
"a.	c #8F8F8F",
"b.	c #CFCFCF",
"c.	c #474747",
"d.	c #9A9A9A",
"e.	c #3E3E3E",
"f.	c #E2E2E2",
"g.	c #3F3F3F",
"h.	c #DCDCDC",
"i.	c #DEDEDE",
"j.	c #DBDBDB",
"k.	c #1A1A1A",
"l.	c #CCCCCC",
"m.	c #727272",
"n.	c #1F1F1F",
"o.	c #696969",
"p.	c #2A2A2A",
"q.	c #606060",
"r.	c #242424",
"s.	c #575757",
"t.	c #4E4E4E",
"u.	c #383838",
"v.	c #464646",
"w.	c #555555",
"x.	c #303030",
"y.	c #E4E4E4",
"z.	c #595959",
"A.	c #515151",
". . . . . . . . . . . . . . . . . . . . . . . . . . . . . . . . . . . . . . . . ",
". . . . . . . . . . . . . . . . . . . . . . . . . . . . . . . . . . . . . . . . ",
". . . . . + @ . . . . . . . . . . . . . . . . . . . . . . . . # $ % . . . . . . ",
". . . . & * = - . . . . . . . . . . . . . ; . . . . . . . . > , ' ) ! . . . . . ",
". . . ~ { ' ' ] ^ . . . . . . . . . / ( _ : . . . . . . . < [ ' ' ' } | . . . . ",
". . 1 2 ' ' ' ' 3 4 . . . . . 5 6 7 8 ' ' 9 . . . . . . 0 a ' ' ' ' ' b c . . . ",
". . d ' ' ' ' ' ' e f . . ; g e ' ' ' ' [ . . . . . . h i ' ' ' ' ' ' j k . . . ",
". . l m ' ' ' ' ' ' n o . . p ' ' ' ' ' q . . . . . r s ' ' ' ' ' ' t 9 . . . . ",
". . . u v ' ' ' ' ' ' t w . . x ' ' ' ' y . . . . z A ' ' ' ' ' ' B o . . . . . ",
". . . . C D ' ' ' ' ' ' j w E F G ' ' H . . . I J K ' ' ' ' ' ' e L . . . . . . ",
". . . . . M H ' ' ' ' ' ' = ' N O P ' Q . . R ' ] ' ' ' ' ' ' 3 4 . . . . . . . ",
". . . . . . S T ' ' ' ' ' ' ' 8 U V W X . 5 Y ' ' ' ' ' ' ' ] ^ . . . . . . . . ",
". . . . . . . Z ` ' ' ' ' ' '  ./ . ! . . . ..' ' ' ' ' ' = U . . . . . . . . . ",
". . . . . . . . J j ' ' ' ' ' ' +.; . . . @.' ' ' ' ' ' 2 @ . . . . . . . . . . ",
". . . . . . . . . 9 N ' ' ' ' ' ' _ #.. : ' ' ' ' ' ' * $.. . . . . . . . . . . ",
". . . . . . . . 1 % F B ' ' ' ' ' %.&.*.' ' ' ' ' ' * =.. -.;.. . . . . . . . . ",
". . . . . . . + ' >.! ,.'.' ' 2 $.. ^ ] ' ' ' ' ' ' ).. &.!.d % . . . . . . . . ",
". . . . . . ~.* ' ' {.. ].^.2 {.. 4 3 ' ' ' ' ' ' p . ! T ' ' >.! . | u . . . . ",
". . . . . o { ' ' $ c . . /.x . L e ' ' ' ' ' ' x . . . (._.' ' %.c $ I . . . . ",
". . . . . . x ' } | . . . . < :.n ' ' ' ' ' ' G c . . . . <.8 3 4 [.' _ . . . . ",
". . . . . . c }.! . . . . . |.^.' ' ' ' ' ' P u c . . . . . 6 |.1.' ' * 2.. . . ",
". . . . . . . . . . . . . 3.3 ' ' ' ' ' ' W V 4.5.. . . . . . 6.' ' ' ' 7.. . . ",
". . . . . . . . . . . . f e ' ' ' ' ' ' 8.9.. 0.' p . . . . a.' ' ' ' ' i . . . ",
". . . . . . . . . . . b.n ' ' ' ' ' ' c.z . R ' ' ' ).. . c d.e.* ' ' ' * f.. . ",
". . . . . . . . . . w t ' ' ' ' ' ' g.h.J ..' ' ' ' * =.. . . . i.6.H ' ' a.. . ",
". . . . . . . . . j.k.' ' ' ' ' ' _ #.. x ' ' ' ' ' ' * $.. . . . . . l.m.) . . ",
". . . . . . . . # n.' ' ' ' ' ' +.; . . c o.' ' ' ' ' ' 2 @ . . . . . . . | . . ",
". . . . . . . > , ' ' ' ' ' ' p./ . . . . | q.' ' ' ' ' ' = U . . . . . . . . . ",
". . . . . . < [ ' ' ' ' ' ' r.> . . . . . . V s.' ' ' ' ' ' ] ^ . . . . . . . . ",
". . . . . 0 +.' ' ' ' ' ' n.2.. . . . . . . . 9.t.' ' ' ' ' ' 3 4 . . . . . . . ",
". . . . #.u.' ' ' ' ' ' j j.. . . . . . . . . . z v.' ' ' ' ' ' e L . . . . . . ",
". . . l g.' ' ' ' ' ' t w . . . . . . . . . . . . l e.' ' ' ' ' ' B o . . . . . ",
". . z c.' ' ' ' ' ' n o . . . . . . . . . . . . . . #._ ' ' ' ' ' ' t 9 . . . . ",
". . w.' ' ' ' ' ' e f . . . . . . . . . . . . . . . . ; x.' ' ' ' ' ' j y.. . . ",
". . 1 2 ' ' ' ' 3 4 . . . . . . . . . . . . . . . . . . / p.' ' ' ' ' z.V . . . ",
". . . ~ { ' ' ] ^ . . . . . . . . . . . . . . . . . . . . S r.' ' ' A.! . . . . ",
". . . . & * = - . . . . . . . . . . . . . . . . . . . . . . 2.` ' A z . . . . . ",
". . . . . + @ . . . . . . . . . . . . . . . . . . . . . . . . J z.r . . . . . . ",
". . . . . . . . . . . . . . . . . . . . . . . . . . . . . . . . . . . . . . . . ",
". . . . . . . . . . . . . . . . . . . . . . . . . . . . . . . . . . . . . . . . "};
