/* XPM */
static char * tasto2_1caso3_xpm[] = {
"40 40 158 2",
"  	c None",
". 	c #FFFFFF",
"+ 	c #FDFDFD",
"@ 	c #535353",
"# 	c #8F8F8F",
"$ 	c #E2E2E2",
"% 	c #FCFCFC",
"& 	c #E4E4E4",
"* 	c #727272",
"= 	c #000000",
"- 	c #010101",
"; 	c #393939",
"> 	c #8C8C8C",
", 	c #E0E0E0",
"' 	c #E7E7E7",
") 	c #FEFEFE",
"! 	c #FBFBFB",
"~ 	c #595959",
"{ 	c #191919",
"] 	c #D4D4D4",
"^ 	c #CCCCCC",
"/ 	c #373737",
"( 	c #8A8A8A",
"_ 	c #F1F1F1",
": 	c #656565",
"< 	c #F8F8F8",
"[ 	c #515151",
"} 	c #151515",
"| 	c #CECECE",
"1 	c #292929",
"2 	c #666666",
"3 	c #5C5C5C",
"4 	c #F6F6F6",
"5 	c #484848",
"6 	c #101010",
"7 	c #C7C7C7",
"8 	c #858585",
"9 	c #707070",
"0 	c #F9F9F9",
"a 	c #0D0D0D",
"b 	c #C0C0C0",
"c 	c #DEDEDE",
"d 	c #7A7A7A",
"e 	c #676767",
"f 	c #DADADA",
"g 	c #1E1E1E",
"h 	c #0A0A0A",
"i 	c #B8B8B8",
"j 	c #3E3E3E",
"k 	c #B9B9B9",
"l 	c #545454",
"m 	c #252525",
"n 	c #E1E1E1",
"o 	c #242424",
"p 	c #070707",
"q 	c #AFAFAF",
"r 	c #9A9A9A",
"s 	c #A5A5A5",
"t 	c #040404",
"u 	c #4B4B4B",
"v 	c #F7F7F7",
"w 	c #2B2B2B",
"x 	c #E6E6E6",
"y 	c #E5E5E5",
"z 	c #2A2A2A",
"A 	c #050505",
"B 	c #A7A7A7",
"C 	c #ADADAD",
"D 	c #060606",
"E 	c #161616",
"F 	c #D8D8D8",
"G 	c #323232",
"H 	c #EBEBEB",
"I 	c #EAEAEA",
"J 	c #303030",
"K 	c #030303",
"L 	c #9D9D9D",
"M 	c #B6B6B6",
"N 	c #232323",
"O 	c #D6D6D6",
"P 	c #EFEFEF",
"Q 	c #EEEEEE",
"R 	c #949494",
"S 	c #404040",
"T 	c #F3F3F3",
"U 	c #F2F2F2",
"V 	c #898989",
"W 	c #F5F5F5",
"X 	c #464646",
"Y 	c #7F7F7F",
"Z 	c #505050",
"` 	c #4E4E4E",
" .	c #767676",
"..	c #747474",
"+.	c #FAFAFA",
"@.	c #575757",
"#.	c #636363",
"$.	c #E8E8E8",
"%.	c #6A6A6A",
"&.	c #606060",
"*.	c #848484",
"=.	c #616161",
"-.	c #626262",
";.	c #222222",
">.	c #696969",
",.	c #585858",
"'.	c #777777",
").	c #F4F4F4",
"!.	c #818181",
"~.	c #4F4F4F",
"{.	c #D2D2D2",
"].	c #7E7E7E",
"^.	c #DCDCDC",
"/.	c #474747",
"(.	c #8B8B8B",
"_.	c #D1D1D1",
":.	c #7C7C7C",
"<.	c #929292",
"[.	c #3F3F3F",
"}.	c #4A4A4A",
"|.	c #313131",
"1.	c #111111",
"2.	c #D3D3D3",
"3.	c #090909",
"4.	c #CBCBCB",
"5.	c #A3A3A3",
"6.	c #202020",
"7.	c #141414",
"8.	c #CDCDCD",
"9.	c #5A5A5A",
"0.	c #5D5D5D",
"a.	c #DBDBDB",
"b.	c #1F1F1F",
"c.	c #C1C1C1",
"d.	c #B7B7B7",
"e.	c #D5D5D5",
"f.	c #C8C8C8",
"g.	c #BFBFBF",
"h.	c #0C0C0C",
"i.	c #CFCFCF",
"j.	c #C6C6C6",
"k.	c #1A1A1A",
"l.	c #AAAAAA",
"m.	c #B0B0B0",
"n.	c #9F9F9F",
"o.	c #8E8E8E",
"p.	c #DFDFDF",
"q.	c #020202",
"r.	c #989898",
"s.	c #383838",
"t.	c #E9E9E9",
"u.	c #2F2F2F",
"v.	c #979797",
"w.	c #EDEDED",
"x.	c #363636",
"y.	c #A1A1A1",
"z.	c #3D3D3D",
"A.	c #555555",
". . . . . . . . . . . . . . . . . . . . . . . . . . . . . . . . . . . . . . . . ",
". . . . . . . . . . . . . . . . . . . . . . . . . . . . . . . . . . . . . . . . ",
". . . . . . . . . . . . . + @ # $ . . . . . . . . . . . . . . . . . . . . . . . ",
". . . . . % & . . . . . . . * = - ; > , . . . . . . . . . . . . . ' ) . . . . . ",
". . . . ! ~ { ] . . . . . . ^ = = = = - / ( _ . . . . . . . . . ] { : + . . . . ",
". . . < [ = = } | . . . . . . 1 = = = = = 2 + . . . . . . . . | } = = 3 ! . . . ",
". . 4 5 = = = = 6 7 . . . . . 8 = = = = 9 ) . . . . . . . . 7 6 = = = = @ 0 . . ",
". . ~ = = = = = = a b . . . . c - = = d b e ! . . . . . . b a = = = = = = 2 . . ",
". . f g = = = = = = h i . . . . j = 8 k h = l 0 . . . . i h = = = = = = m n . . ",
". . . , o = = = = = = p q . . . r # . s t = = u v . . q p = = = = = = w x . . . ",
". . . . y z = = = = = = A B . . ) . . . C D = E F . B A = = = = = = G H . . . . ",
". . . . . I J = = = = = = K L . . . . . . M N O . L K = = = = = = ; P . . . . . ",
". . . . . . Q / = = = = = = - R . . . . . . ! . R - = = = = = = S T . . . . . . ",
". . . . . . . U j = = = = = = - V . . . . . . V - = = = = = = 5 4 . . . . . . . ",
". . . . . . . . W X = = = = = = = Y . . . . Y = = = = = = = Z < . . . . . . . . ",
". . . . . . . . . < ` = = = = = = =  .) ) ..= = = = = = = p f . . . . . . . . . ",
". . . . . . . . . . +.@.= = = = = #.$._ %.= = = = = = = = = ( . . . . . . . . . ",
". . . . . . . . . . . % &.= = = *.. % =.= = = = = = = -.;.*.. . . . . . . . . . ",
". . . . . . . . . . . . + >.= -.. +.,.= = = = = = = '.. ).. . . . . ] !.Q . . . ",
". . . . . . . . . . . . . ) ..f < ~.= = = = = = = !.. . . . . {.].w = / . . . . ",
". . . . . . . . . . . . . . . ^./.= = = = = = p (.. . . _.:.1 = = = = <.. . . . ",
". . . . . . . . . . . . . . U [.= = = = = = h i O U . ! ,.= = = = = t I . . . . ",
". . . . . . . . . . . . . Q / = = = = = = a b . e / Q . % =.= = = = }.. . . . . ",
". . . . . . . . . . . . I |.= = = = = = 1.7 . L = = |.I q 2.%.= = = s . . . . . ",
". . . . . . . . . . . x z = = = = = = 3.4.. 5.K = = = 6.t 7.8...= a ).. . . . . ",
". . . . . . . . . . , o = = = = = = h k H ..K = = = = = = = 9.. Y 0.. . . . . . ",
". . . . . . . . . a.b.= = = = = = a c.. . d.3.= = = = = = A e.. . Q . . . . . . ",
". . . . . . . . e.{ = = = = = = 1.f.. . . . g.h.= = = = = = { e.. . . . . . . . ",
". . . . . . . | } = = = = = = } i.. . . . . . j.6 = = = = = = } | . . . . . . . ",
". . . . . . f.1.= = = = = = k.e.. . . . . ) 5.! 8.7.= = = = = = 1.f.. . . . . . ",
". . . . . b a = = = = = = b.a.. . . . . + 2 = l 0 ] { = = = = = = a b . . . . . ",
". . . . i h = = = = = = m n . . . . . ! 3 = = = l.. f g = = = = = = h i . . . . ",
". . . m.p = = = = = = w x . . . . . . n.= = - o.. . . p.N = = = = = = p m.. . . ",
". . B A = = = = = = |.H . . . . . . . ) ..q.r.. . . . . y 1 = = = = = = A B . . ",
". . o.- = = = = = s.P . . . . . . . . . . | . . . . . . . t.u.= = = = = - o.. . ",
". . . v.q.= = = [.U . . . . . . . . . . . . . . . . . . . . w.x.= = = q.v.. . . ",
". . . . y.K = /.W . . . . . . . . . . . . . . . . . . . . . . _ z.= K y.. . . . ",
". . . . . l.A.< . . . . . . . . . . . . . . . . . . . . . . . . W u l.. . . . . ",
". . . . . . . . . . . . . . . . . . . . . . . . . . . . . . . . . . . . . . . . ",
". . . . . . . . . . . . . . . . . . . . . . . . . . . . . . . . . . . . . . . . "};
