/* XPM */
static char * tasto2_2_xpm[] = {
"40 40 129 2",
"  	c None",
". 	c #FFFFFF",
"+ 	c #F6F6F6",
"@ 	c #595959",
"# 	c #DADADA",
"$ 	c #A7A7A7",
"% 	c #8E8E8E",
"& 	c #F8F8F8",
"* 	c #484848",
"= 	c #000000",
"- 	c #1E1E1E",
"; 	c #E0E0E0",
"> 	c #B0B0B0",
", 	c #050505",
"' 	c #010101",
") 	c #979797",
"! 	c #FBFBFB",
"~ 	c #515151",
"{ 	c #242424",
"] 	c #E5E5E5",
"^ 	c #B8B8B8",
"/ 	c #070707",
"( 	c #020202",
"_ 	c #A1A1A1",
": 	c #FCFCFC",
"< 	c #2A2A2A",
"[ 	c #EAEAEA",
"} 	c #C0C0C0",
"| 	c #0A0A0A",
"1 	c #030303",
"2 	c #AAAAAA",
"3 	c #E4E4E4",
"4 	c #191919",
"5 	c #303030",
"6 	c #EEEEEE",
"7 	c #C8C8C8",
"8 	c #0D0D0D",
"9 	c #555555",
"0 	c #D4D4D4",
"a 	c #151515",
"b 	c #373737",
"c 	c #F2F2F2",
"d 	c #CECECE",
"e 	c #111111",
"f 	c #474747",
"g 	c #101010",
"h 	c #3E3E3E",
"i 	c #F5F5F5",
"j 	c #D5D5D5",
"k 	c #3F3F3F",
"l 	c #C7C7C7",
"m 	c #464646",
"n 	c #DBDBDB",
"o 	c #383838",
"p 	c #4E4E4E",
"q 	c #FAFAFA",
"r 	c #1F1F1F",
"s 	c #313131",
"t 	c #EFEFEF",
"u 	c #575757",
"v 	c #E6E6E6",
"w 	c #2B2B2B",
"x 	c #EBEBEB",
"y 	c #AFAFAF",
"z 	c #606060",
"A 	c #FDFDFD",
"B 	c #252525",
"C 	c #FEFEFE",
"D 	c #696969",
"E 	c #E1E1E1",
"F 	c #9D9D9D",
"G 	c #747474",
"H 	c #1A1A1A",
"I 	c #949494",
"J 	c #626262",
"K 	c #DCDCDC",
"L 	c #898989",
"M 	c #848484",
"N 	c #CFCFCF",
"O 	c #7F7F7F",
"P 	c #636363",
"Q 	c #4F4F4F",
"R 	c #767676",
"S 	c #E8E8E8",
"T 	c #585858",
"U 	c #C1C1C1",
"V 	c #F1F1F1",
"W 	c #616161",
"X 	c #090909",
"Y 	c #B9B9B9",
"Z 	c #6A6A6A",
"` 	c #CBCBCB",
" .	c #B7B7B7",
"..	c #A3A3A3",
"+.	c #BFBFBF",
"@.	c #0C0C0C",
"#.	c #C6C6C6",
"$.	c #F7F7F7",
"%.	c #8B8B8B",
"&.	c #D6D6D6",
"*.	c #676767",
"=.	c #818181",
"-.	c #141414",
";.	c #D9D9D9",
">.	c #F4F4F4",
",.	c #414141",
"'.	c #6C6C6C",
").	c #DFDFDF",
"!.	c #3B3B3B",
"~.	c #F3F3F3",
"{.	c #232323",
"].	c #393939",
"^.	c #080808",
"/.	c #292929",
"(.	c #E9E9E9",
"_.	c #525252",
":.	c #2F2F2F",
"<.	c #EDEDED",
"[.	c #363636",
"}.	c #404040",
"|.	c #3D3D3D",
"1.	c #E7E7E7",
"2.	c #4B4B4B",
"3.	c #656565",
"4.	c #323232",
"5.	c #5C5C5C",
"6.	c #535353",
"7.	c #F9F9F9",
"8.	c #666666",
". . . . . . . . . . . . . . . . . . . . . . . . . . . . . . . . . . . . . . . . ",
". . . . . . . . . . . . . . . . . . . . . . . . . . . . . . . . . . . . . . . . ",
". . . . . . + @ # . . . . . . . . . . . . . . . . . . . . . . . . $ % . . . . . ",
". . . . . & * = - ; . . . . . . . . . . . . . . . . . . . . . . > , ' ) . . . . ",
". . . . ! ~ = = = { ] . . . . . . . . . . . . . . . . . . . . ^ / = = ( _ . . . ",
". . . : @ = = = = = < [ . . . . . . . . . . . . . . . . . . } | = = = = 1 2 . . ",
". . . 3 4 = = = = = = 5 6 . . . . . . . . . . . . . . . . 7 8 = = = = = = 9 . . ",
". . . . 0 a = = = = = = b c . . . . . . . . . . . . . . d e = = = = = = f & . . ",
". . . . . d g = = = = = = h i . . . . . . . . . . . . j a = = = = = = k i . . . ",
". . . . . . l 8 = = = = = = m & . . . . . . . . . . n 4 = = = = = = o c . . . . ",
". . . . . . . } | = = = = = = p q . . . . . . . . ; r = = = = = = s t . . . . . ",
". . . . . . . . ^ / = = = = = = u : . . . . . . v { = = = = = = w x . . . . . . ",
". . . . . . . . . y , = = = = = = z A . . . . [ < = = = = = = B v . . . . . . . ",
". . C . . . . . . . $ 1 = = = = = = D C . . 6 s = = = = = = r E . . . . . . . . ",
". . . . . . . . . . . F ' = = = = = = G . c b = = = = = = H n . . . . . . . . . ",
". . . . . . . C . . . . I ' = = = = J # K k = = = = = = a j . . . . . . . . . . ",
". . . . . . . . . . C . . L = = = M . & f = = = = = = e N . . . . . . . . . . . ",
". . . . . . . . . . . . . . O = P . q Q = = = = = = 8 7 . . . . . . . . . . . . ",
". . . . . . . . . . . . . . . R S : T = = = = = = | U . . . . . . . . . . . . . ",
". . . . . . . . . . . . . . . C V W = = = = = = X Y . . . . . . . . . . . . . . ",
". . . . . . . . . . . . . . . C Z = = = = = = e ` x . . . . . . . . . . . . . . ",
". . . . . . . . . . . . . . . G = = = = = = 8 l . G  .. . C . . . . . . . . . . ",
". . . . . . . . . . . . : . O = = = = = = | } . ..1 X +.. . . . . . . . . . . . ",
". . . . . . . . . . . q . L = = = = = = / ^ . F 1 = = @.#.C . . . . . . . . . . ",
". . . . . . . . . C $.. I ' = = = = = = %.&.*.= = = = = g j C . . . . . . . . . ",
". . . . . . . . . . . F ' = = = = = = =.. c b = = = = = = -.;.. . . . . . . . . ",
". . . . . . . . . . $ 1 = = = = = = =.. . . >.,.= = = = = = 4 # . . . . . . . . ",
". . . . . . . . . y , = = = = = = '.. . . C . $.b = = = = = = - ).. . . . . . . ",
". . . . . . . . ^ / = = = = = = !.~.C . . . . C ` / = = = = = = {.] . . . . . . ",
". . . . . . . } | = = = = = = ].! . . . . . . . C #.^.= = = = = = /.(.. . . . . ",
". . . . . . l 8 = = = = = = _.+ C . . . . . . . . C # 4 = = = = = = :.<.. . . . ",
". . . . . d g = = = = = = * & . . . . . . . . . . . . j a = = = = = = [.V . . . ",
". . . . 0 a = = = = = = }.+ . . . . . . . . . . . . . . d e = = = = = = |.i . . ",
". . . 1.4 = = = = = = ].~.. . . . . . . . . . . . . C . . 7 8 = = = = = = 2.. . ",
". . . C 3.= = = = = 4.t . . . . . . . . . . . . . . . . . . } | = = = = 1 2 . . ",
". . . . A 5.= = = w x . . . . . . . . . . . . . . . . . . . . ^ / = = ( _ . . . ",
". . . . . ! 6.= B v . . . . . . . . C . . . . . . . . . . . . . > , ' ) . . . . ",
". . . . . . 7.8.E . . . . . . . . . . . . . . . . . . . . . . . . $ % . . . . . ",
". . . . . . . . . . . . . . . . . . . . . . . . . . . . . . . . . . . . . . . . ",
". . . . . . . . . . . . . . . . . . . . . . . . . . . . . . . . . . . . . . . . "};
