/* XPM */
static char * tasto1antiorario_xpm[] = {
"40 40 45 1",
" 	c None",
".	c #FFFFFF",
"+	c #C9C9C9",
"@	c #C3C3C3",
"#	c #F2F2F2",
"$	c #1A1A1A",
"%	c #000000",
"&	c #C7C7C7",
"*	c #FEFEFE",
"=	c #E8E8E8",
"-	c #F0F0F0",
";	c #070707",
">	c #040404",
",	c #0B0B0B",
"'	c #FDFDFD",
")	c #F1F1F1",
"!	c #0F0F0F",
"~	c #151515",
"{	c #DBDBDB",
"]	c #DCDCDC",
"^	c #FBFBFB",
"/	c #A0A0A0",
"(	c #9F9F9F",
"_	c #919191",
":	c #ACACAC",
"<	c #EEEEEE",
"[	c #232323",
"}	c #0A0A0A",
"|	c #A7A7A7",
"1	c #303030",
"2	c #F8F8F8",
"3	c #696969",
"4	c #808080",
"5	c #1E1E1E",
"6	c #2D2D2D",
"7	c #F9F9F9",
"8	c #B8B8B8",
"9	c #010101",
"0	c #CBCBCB",
"a	c #606060",
"b	c #767676",
"c	c #404040",
"d	c #F6F6F6",
"e	c #CCCCCC",
"f	c #C6C6C6",
"........................................",
"........................................",
"........................................",
"...............+@@@@@#..................",
"...............$%%%%%&..................",
"...............$%%%%%&..................",
"...............$%%%%%&..................",
"...............$%%%%%&..................",
"......*===.....$%%%%%&..................",
"......-%%;.....$%%%%%&..................",
"......-%%;.....$%%%%%&..................",
"......-%%;.....$%%%%%&..................",
"......->>,.....$%%%%%&..................",
".......'''.....$%%%%%&..................",
"...............$%%%%%&..................",
"...............$%%%%%&..................",
"...............$%%%%%&..................",
"......)!!~.....$%%%%%&..................",
"......-%%;.....$%%%%%&..................",
"......-%%;.....$%%%%%&..................",
"......-%%;.....$%%%%%&..................",
"......'{{].....$%%%%%&..................",
".....^/(._:'...$%%%%%&..................",
"....<[%}|>%12..$%%%%%&..................",
".....3%%%%%4...$%%%%%&..................",
".....#5%%%67...$%%%%%&..................",
"......89%>0....$%%%%%&..................",
".......a%b.....$%%%%%&..................",
".......<cd.....$%%%%%&..................",
"........^......$%%%%%&..................",
"...............$%%%%%&..................",
"...............$%%%%%&..................",
"...............$%%%%%&..................",
"...............$%%%%%&..................",
"...............$%%%%%&..................",
"...............$%%%%%&..................",
"...............efffff#..................",
"........................................",
"........................................",
"........................................"};
