/* XPM */
static char * tasto2_1_xpm[] = {
"40 40 129 2",
"  	c None",
". 	c #FFFFFF",
"+ 	c #AAAAAA",
"@ 	c #555555",
"# 	c #F8F8F8",
"$ 	c #F5F5F5",
"% 	c #4B4B4B",
"& 	c #A1A1A1",
"* 	c #030303",
"= 	c #000000",
"- 	c #474747",
"; 	c #F1F1F1",
"> 	c #3D3D3D",
", 	c #979797",
"' 	c #020202",
") 	c #3F3F3F",
"! 	c #F2F2F2",
"~ 	c #EDEDED",
"{ 	c #363636",
"] 	c #8E8E8E",
"^ 	c #010101",
"/ 	c #383838",
"( 	c #EFEFEF",
"_ 	c #E9E9E9",
": 	c #2F2F2F",
"< 	c #A7A7A7",
"[ 	c #050505",
"} 	c #313131",
"| 	c #EBEBEB",
"1 	c #E5E5E5",
"2 	c #292929",
"3 	c #B0B0B0",
"4 	c #070707",
"5 	c #2B2B2B",
"6 	c #E6E6E6",
"7 	c #DFDFDF",
"8 	c #232323",
"9 	c #B8B8B8",
"0 	c #0A0A0A",
"a 	c #252525",
"b 	c #E1E1E1",
"c 	c #DADADA",
"d 	c #1E1E1E",
"e 	c #C0C0C0",
"f 	c #0D0D0D",
"g 	c #1F1F1F",
"h 	c #DBDBDB",
"i 	c #FEFEFE",
"j 	c #D9D9D9",
"k 	c #191919",
"l 	c #C8C8C8",
"m 	c #111111",
"n 	c #1A1A1A",
"o 	c #D5D5D5",
"p 	c #141414",
"q 	c #CECECE",
"r 	c #151515",
"s 	c #CFCFCF",
"t 	c #C6C6C6",
"u 	c #101010",
"v 	c #BFBFBF",
"w 	c #0C0C0C",
"x 	c #C1C1C1",
"y 	c #B7B7B7",
"z 	c #090909",
"A 	c #080808",
"B 	c #E0E0E0",
"C 	c #242424",
"D 	c #B9B9B9",
"E 	c #747474",
"F 	c #2A2A2A",
"G 	c #CBCBCB",
"H 	c #A3A3A3",
"I 	c #373737",
"J 	c #EAEAEA",
"K 	c #C7C7C7",
"L 	c #9D9D9D",
"M 	c #414141",
"N 	c #F7F7F7",
"O 	c #EEEEEE",
"P 	c #676767",
"Q 	c #F4F4F4",
"R 	c #D6D6D6",
"S 	c #DCDCDC",
"T 	c #8B8B8B",
"U 	c #4F4F4F",
"V 	c #818181",
"W 	c #FDFDFD",
"X 	c #696969",
"Y 	c #626262",
"Z 	c #FAFAFA",
"` 	c #585858",
" .	c #FCFCFC",
"..	c #606060",
"+.	c #848484",
"@.	c #616161",
"#.	c #6C6C6C",
"$.	c #F3F3F3",
"%.	c #575757",
"&.	c #636363",
"*.	c #E8E8E8",
"=.	c #6A6A6A",
"-.	c #3B3B3B",
";.	c #FBFBFB",
">.	c #4E4E4E",
",.	c #767676",
"'.	c #393939",
").	c #F6F6F6",
"!.	c #464646",
"~.	c #7F7F7F",
"{.	c #525252",
"].	c #3E3E3E",
"^.	c #898989",
"/.	c #484848",
"(.	c #949494",
"_.	c #404040",
":.	c #303030",
"<.	c #323232",
"[.	c #AFAFAF",
"}.	c #595959",
"|.	c #666666",
"1.	c #535353",
"2.	c #F9F9F9",
"3.	c #515151",
"4.	c #5C5C5C",
"5.	c #D4D4D4",
"6.	c #656565",
"7.	c #E4E4E4",
"8.	c #E7E7E7",
". . . . . . . . . . . . . . . . . . . . . . . . . . . . . . . . . . . . . . . . ",
". . . . . . . . . . . . . . . . . . . . . . . . . . . . . . . . . . . . . . . . ",
". . . . . + @ # . . . . . . . . . . . . . . . . . . . . . . . . $ % + . . . . . ",
". . . . & * = - $ . . . . . . . . . . . . . . . . . . . . . . ; > = * & . . . . ",
". . . , ' = = = ) ! . . . . . . . . . . . . . . . . . . . . ~ { = = = ' , . . . ",
". . ] ^ = = = = = / ( . . . . . . . . . . . . . . . . . . _ : = = = = = ^ ] . . ",
". . < [ = = = = = = } | . . . . . . . . . . . . . . . . 1 2 = = = = = = [ < . . ",
". . . 3 4 = = = = = = 5 6 . . . . . . . . . . . . . . 7 8 = = = = = = 4 3 . . . ",
". . . . 9 0 = = = = = = a b . . . . . . . . . . . . c d = = = = = = 0 9 . . . . ",
". . . . . e f = = = = = = g h . . . . . . . . . i j k = = = = = = f e . . . . . ",
". . . . . . l m = = = = = = n o . . . . . i . i o p = = = = = = m l . . . . . . ",
". . . . . . . q r = = = = = = r s . . . . . . t u = = = = = = r q . . . . . . . ",
". . . . . . . . o k = = = = = = m l . . . . v w = = = = = = k o . . . . . . . . ",
". . . . . . . . . h g = = = = = = f x . . y z = = = = = = A c . . i . . . . . . ",
". . . . . . . . . . B C = = = = = = 0 D | E * = = = = = 4 t i . . . . . . . . . ",
". . . . . . . . . . . 6 F = = = = = = z G . H * = = = I G i . . . . . . . . . . ",
". . . . . . . . . . . . J } = = = = = = m K . L = = M N i . . . . . . . . . . . ",
". . . . . . . . . . . . . O I = = = = = = f e . P I Q . . . . . . . . . . . . . ",
". . . . . . . . . . . . . . ! ) = = = = = = 0 9 R ! . i . . . . . . . . . . . . ",
". . . . . . . . . . . . . . . S - = = = = = = 4 T . . . . . . . . . . . . . . . ",
". . . . . . . . . . . . . i E c # U = = = = = = = V . . . . . . . . . . . . . . ",
". . . . . . . . . . . . W X = Y . Z ` = = = = = = = V . i . . . . . . . i . . . ",
". . . . . . . . . . .  ...= = = +..  .@.= = = = = = = #.$.. . . . . . . . . . . ",
". . . . . . . . . . Z %.= = = = = &.*.; =.= = = = = = = -.;.i . . . . . . . . . ",
". . . . . . . . . # >.= = = = = = = ,.i i E = = = = = = = '.).. . . . . . . . . ",
". . . . . . . . $ !.= = = = = = = ~.. . . . ~.= = = = = = = {.# . . . . . . . . ",
". . . . . . . ! ].= = = = = = ^ ^.. . . . . . ^.^ = = = = = = /.).. . . . . . . ",
". . . . . . O I = = = = = = ^ (.. . . . . .  .. (.^ = = = = = = _.$.. . . . . . ",
". . . . . J :.= = = = = = * L . . . . . . . . Z . L * = = = = = = '.( . . . . . ",
". . . . 1 F = = = = = = [ < . . i . . . . . . . N . < [ = = = = = = <.| . . . . ",
". . . B C = = = = = = 4 [.. . . . . . . . . . . i . . [.4 = = = = = = 5 6 . . . ",
". . c d = = = = = = 0 9 . . . . . . . . . . . . . . . . 9 0 = = = = = = a b . . ",
". . }.= = = = = = f e . . . . i . . . . . . . . . . . . . e f = = = = = = |.. . ",
". . )./.= = = = u K . . . . . . . . . . . . . . . . . . . . K u = = = = 1.2.. . ",
". . . # 3.= = r q . . . . . . . . . . . . . . . . . . . . . . q r = = 4.;.. . . ",
". . . . ;.}.k 5.. . . . . . . . . . . . . . . . . . . . . . . . 5.k 6.W . . . . ",
". . . . .  .7.. . . . . . . . . . . . . . . . . . . . . . . . . . 8.i . . . . . ",
". . . . . . . . . . . . . i . . . . . . . . . . . . . . . . . . . . . . . . . . ",
". . . . . . . . . . . . . . . . . . . . . . . . . . . . . . . . . . . . . . . . ",
". . . . . . . . . . . . . . . . . . . . . . . . . . . . . . . . . . . . . . . . "};
