/* XPM */
static char * tasto0orario_xpm[] = {
"40 40 118 2",
"  	c None",
". 	c #FFFFFF",
"+ 	c #FCFCFC",
"@ 	c #4A4A4A",
"# 	c #8C8C8C",
"$ 	c #F5F5F5",
"% 	c #343434",
"& 	c #000000",
"* 	c #1B1B1B",
"= 	c #979797",
"- 	c #F8F8F8",
"; 	c #D4D4D4",
"> 	c #8B8B8B",
", 	c #E7E7E7",
"' 	c #DFDFDF",
") 	c #DCDCDC",
"! 	c #202020",
"~ 	c #A0A0A0",
"{ 	c #CBCBCB",
"] 	c #B8B8B8",
"^ 	c #B3B3B3",
"/ 	c #252525",
"( 	c #A8A8A8",
"_ 	c #FDFDFD",
": 	c #131313",
"< 	c #868686",
"[ 	c #C6C6C6",
"} 	c #666666",
"| 	c #E0E0E0",
"1 	c #D5D5D5",
"2 	c #D1D1D1",
"3 	c #0F0F0F",
"4 	c #7D7D7D",
"5 	c #F0F0F0",
"6 	c #0C0C0C",
"7 	c #747474",
"8 	c #ECECEC",
"9 	c #3B3B3B",
"0 	c #6C6C6C",
"a 	c #E8E8E8",
"b 	c #F2F2F2",
"c 	c #E9E9E9",
"d 	c #A7A7A7",
"e 	c #727272",
"f 	c #4B4B4B",
"g 	c #303030",
"h 	c #292929",
"i 	c #2B2B2B",
"j 	c #434343",
"k 	c #676767",
"l 	c #D6D6D6",
"m 	c #F3F3F3",
"n 	c #010101",
"o 	c #222222",
"p 	c #7C7C7C",
"q 	c #E3E3E3",
"r 	c #F4F4F4",
"s 	c #878787",
"t 	c #121212",
"u 	c #040404",
"v 	c #616161",
"w 	c #E1E1E1",
"x 	c #1F1F1F",
"y 	c #0A0A0A",
"z 	c #898989",
"A 	c #FAFAFA",
"B 	c #6E6E6E",
"C 	c #3F3F3F",
"D 	c #E6E6E6",
"E 	c #424242",
"F 	c #1E1E1E",
"G 	c #D3D3D3",
"H 	c #EEEEEE",
"I 	c #353535",
"J 	c #2A2A2A",
"K 	c #626262",
"L 	c #9C9C9C",
"M 	c #8E8E8E",
"N 	c #6D6D6D",
"O 	c #3A3A3A",
"P 	c #050505",
"Q 	c #D2D2D2",
"R 	c #F7F7F7",
"S 	c #414141",
"T 	c #1A1A1A",
"U 	c #828282",
"V 	c #EFEFEF",
"W 	c #181818",
"X 	c #DDDDDD",
"Y 	c #090909",
"Z 	c #FEFEFE",
"` 	c #ABABAB",
" .	c #2E2E2E",
"..	c #2D2D2D",
"+.	c #F1F1F1",
"@.	c #555555",
"#.	c #696969",
"$.	c #151515",
"%.	c #7A7A7A",
"&.	c #BFBFBF",
"*.	c #3D3D3D",
"=.	c #767676",
"-.	c #080808",
";.	c #EBEBEB",
">.	c #505050",
",.	c #A5A5A5",
"'.	c #E4E4E4",
").	c #515151",
"!.	c #020202",
"~.	c #C0C0C0",
"{.	c #C3C3C3",
"].	c #5F5F5F",
"^.	c #A2A2A2",
"/.	c #1D1D1D",
"(.	c #A3A3A3",
"_.	c #ADADAD",
":.	c #393939",
"<.	c #8A8A8A",
". . . . . . . . . . . . . . . . . . . . . . . . . . . . . . . . . . . . . . . . ",
". . . . . . . . . . . . . . . . . . . . . . . . . . . . . . . . . . . . . . . . ",
". . . . . . . . . . . . . . . . . . . . . . . . . . . . . . . . . . . . . . . . ",
". . . . . . . . . . . . . . . . . . . . . . . . . . . . . . . . . . . . . . . . ",
". . . . . . . . . . . . . . . . . . . . . . + . . . . . . . . . . . . . . . . . ",
". . . . . . . . . . . . . . . . . . . . . . @ # $ . . . . . . . . . . . . . . . ",
". . . . . . . . . . . . . . . . . . . . . . % & * = - . . . . . . . . . . . . . ",
". . . . . . . ; > > > > , . . . ' > > > > ) % & & & ! ~ + . . . . . . . . . . . ",
". . . . . . . ~ & & & & { . . . ] & & & & ^ % & & & & & / ( _ . . . . . . . . . ",
". . . . . . . ~ & & & & { . . . ] & & & & ^ % & & & & & : < $ . . . . . . . . . ",
". . . . . . . [ } } } } | . . . 1 } } } } 2 % & & & 3 4 5 . . . . . . . . . . . ",
". . . . . . . . . . . . . . . . . . . . . . % & 6 7 8 . . . . . . . . . . . . . ",
". . . . . . . . . . . . . . . . . . . . . . 9 0 a . . . . . . . . . . . . . . . ",
". . . . . . . . . . . . . . . . . . . . . . b . . . . . . . . . . . . . . . . . ",
". . . . . . . . . . . . . . . . . . . . . . . . . . . . . . . . . . . . . . . . ",
". . . . . . . . . . . . . . . . . . . . . . . . . . . . . . . . . . . . . . . . ",
". . . . . . . . . . . . . . . . . . . . . . . . . . . . . . . . . . . . . . . . ",
". . . . . . . . . . . . . . . . . . . . . . . . . . . . . . . . . . . . . . . . ",
". . . . . . . . . . . . . . . . . . . . . . . . . . . . . . . . . . . . . . . . ",
". . . . . . . . . . . . . . c d e f g h ! i j k = l . . . . . . . . . . . . . . ",
". . . . . . . . . . . m = 9 n & & & & & & & & & & & o p q . . . . . . . . . . . ",
". . . . . . . . . r s t & & & & & & & & & & & & & & & & u v w . . . . . . . . . ",
". . . . . . . . ^ x & & & & & & & & & & & & & & & & & & & & y z + . . . . . . . ",
". . . . . . A B n & & & & & & & & & & & & & & & & & & & & & & & C D . . . . . . ",
". . . . . 5 E & & & & & & & & & & & & & & & & & & & & & & & & & & F G . . . . . ",
". . . . H I & & & & & & & & & n J K < L L M N O P & & & & & & & & & : Q . . . . ",
". . . R S & & & & & & & & T U | . . . . . . . . V L g & & & & & & & & W X . . . ",
". . . k & & & & & & & Y < R . . . . . . . . . . . . Z ` F & & & & & & &  .$ . . ",
". . ` & & & & & & & ..l . . . . . . . . . . . . . . . . +.@.& & & & & & & #.. . ",
". H $.& & & & & & j b . . . . . . . . . . . . . . . . . . Z %.& & & & & & n &.. ",
". B & & & & & & *.R . . . . . . . . . . . . . . . . . . . . . =.& & & & & &  ._ ",
"w -.& & & & & x ;.. . . . . . . . . . . . . . . . . . . . . . Z >.& & & & & & ,.",
"'.).n & & & !.~.. . . . . . . . . . . . . . . . . . . . . . . . 8 W & & & & g {.",
". . [ 9 & & ].. . . . . . . . . . . . . . . . . . . . . . . . . . ^.& & /.(._ . ",
". . . . _...w . . . . . . . . . . . . . . . . . . . . . . . . . . _ :.<.R . . . ",
". . . . . Z . . . . . . . . . . . . . . . . . . . . . . . . . . . . Z . . . . . ",
". . . . . . . . . . . . . . . . . . . . . . . . . . . . . . . . . . . . . . . . ",
". . . . . . . . . . . . . . . . . . . . . . . . . . . . . . . . . . . . . . . . ",
". . . . . . . . . . . . . . . . . . . . . . . . . . . . . . . . . . . . . . . . ",
". . . . . . . . . . . . . . . . . . . . . . . . . . . . . . . . . . . . . . . . "};
