/* XPM */
static char * tasto2caso2_xpm[] = {
"40 40 152 2",
"  	c None",
". 	c #FFFFFF",
"+ 	c #AAAAAA",
"@ 	c #4B4B4B",
"# 	c #F5F5F5",
"$ 	c #F8F8F8",
"% 	c #555555",
"& 	c #A1A1A1",
"* 	c #030303",
"= 	c #000000",
"- 	c #3D3D3D",
"; 	c #F1F1F1",
"> 	c #474747",
", 	c #979797",
"' 	c #020202",
") 	c #363636",
"! 	c #EDEDED",
"~ 	c #F2F2F2",
"{ 	c #3F3F3F",
"] 	c #8E8E8E",
"^ 	c #010101",
"/ 	c #2F2F2F",
"( 	c #E9E9E9",
"_ 	c #CECECE",
": 	c #EFEFEF",
"< 	c #383838",
"[ 	c #A7A7A7",
"} 	c #050505",
"| 	c #292929",
"1 	c #E5E5E5",
"2 	c #989898",
"3 	c #747474",
"4 	c #FEFEFE",
"5 	c #EBEBEB",
"6 	c #313131",
"7 	c #B0B0B0",
"8 	c #070707",
"9 	c #232323",
"0 	c #DFDFDF",
"a 	c #9F9F9F",
"b 	c #E6E6E6",
"c 	c #2B2B2B",
"d 	c #B8B8B8",
"e 	c #0A0A0A",
"f 	c #1E1E1E",
"g 	c #DADADA",
"h 	c #5C5C5C",
"i 	c #FBFBFB",
"j 	c #E1E1E1",
"k 	c #252525",
"l 	c #C0C0C0",
"m 	c #0D0D0D",
"n 	c #191919",
"o 	c #D4D4D4",
"p 	c #F9F9F9",
"q 	c #545454",
"r 	c #666666",
"s 	c #FDFDFD",
"t 	c #DBDBDB",
"u 	c #1F1F1F",
"v 	c #C8C8C8",
"w 	c #111111",
"x 	c #141414",
"y 	c #CDCDCD",
"z 	c #A3A3A3",
"A 	c #D5D5D5",
"B 	c #1A1A1A",
"C 	c #151515",
"D 	c #101010",
"E 	c #C6C6C6",
"F 	c #CFCFCF",
"G 	c #0C0C0C",
"H 	c #BFBFBF",
"I 	c #EEEEEE",
"J 	c #090909",
"K 	c #B7B7B7",
"L 	c #C1C1C1",
"M 	c #5D5D5D",
"N 	c #7F7F7F",
"O 	c #5A5A5A",
"P 	c #AFAFAF",
"Q 	c #B9B9B9",
"R 	c #242424",
"S 	c #E0E0E0",
"T 	c #F4F4F4",
"U 	c #040404",
"V 	c #202020",
"W 	c #2A2A2A",
"X 	c #A5A5A5",
"Y 	c #6A6A6A",
"Z 	c #D3D3D3",
"` 	c #EAEAEA",
" .	c #4A4A4A",
"..	c #616161",
"+.	c #FCFCFC",
"@.	c #373737",
"#.	c #585858",
"$.	c #929292",
"%.	c #7C7C7C",
"&.	c #D1D1D1",
"*.	c #848484",
"=.	c #797979",
"-.	c #7E7E7E",
";.	c #D2D2D2",
">.	c #818181",
",.	c #777777",
"'.	c #696969",
").	c #222222",
"!.	c #626262",
"~.	c #606060",
"{.	c #8A8A8A",
"].	c #575757",
"^.	c #FAFAFA",
"/.	c #4E4E4E",
"(.	c #505050",
"_.	c #464646",
":.	c #F6F6F6",
"<.	c #484848",
"[.	c #898989",
"}.	c #3E3E3E",
"|.	c #F3F3F3",
"1.	c #404040",
"2.	c #949494",
"3.	c #393939",
"4.	c #9D9D9D",
"5.	c #D6D6D6",
"6.	c #B6B6B6",
"7.	c #303030",
"8.	c #323232",
"9.	c #D8D8D8",
"0.	c #161616",
"a.	c #060606",
"b.	c #ADADAD",
"c.	c #F7F7F7",
"d.	c #8F8F8F",
"e.	c #9A9A9A",
"f.	c #858585",
"g.	c #676767",
"h.	c #7A7A7A",
"i.	c #DEDEDE",
"j.	c #595959",
"k.	c #535353",
"l.	c #C7C7C7",
"m.	c #707070",
"n.	c #515151",
"o.	c #656565",
"p.	c #CCCCCC",
"q.	c #E7E7E7",
"r.	c #8C8C8C",
"s.	c #727272",
"t.	c #E4E4E4",
"u.	c #E2E2E2",
". . . . . . . . . . . . . . . . . . . . . . . . . . . . . . . . . . . . . . . . ",
". . . . . . . . . . . . . . . . . . . . . . . . . . . . . . . . . . . . . . . . ",
". . . . . + @ # . . . . . . . . . . . . . . . . . . . . . . . . $ % + . . . . . ",
". . . . & * = - ; . . . . . . . . . . . . . . . . . . . . . . # > = * & . . . . ",
". . . , ' = = = ) ! . . . . . . . . . . . . . . . . . . . . ~ { = = = ' , . . . ",
". . ] ^ = = = = = / ( . . . . . . . _ . . . . . . . . . . : < = = = = = ^ ] . . ",
". . [ } = = = = = = | 1 . . . . . 2 ' 3 4 . . . . . . . 5 6 = = = = = = } [ . . ",
". . . 7 8 = = = = = = 9 0 . . . ] ^ = = a . . . . . . b c = = = = = = 8 7 . . . ",
". . . . d e = = = = = = f g . + = = = h i . . . . . j k = = = = = = e d . . . . ",
". . . . . l m = = = = = = n o p q = r s . . . . . t u = = = = = = m l . . . . . ",
". . . . . . v w = = = = = = x y i z 4 . . . . . A B = = = = = = w v . . . . . . ",
". . . . . . . _ C = = = = = = D E . . . . . . F C = = = = = = C _ . . . . . . . ",
". . . . . . . . A n = = = = = = G H . . . . v w = = = = = = n A . . . . . . . . ",
". . . . . . I . . A } = = = = = = J K . . L m = = = = = = u t . . . . . . . . . ",
". . . . . . M N . O = = = = = = = = 8 P Q e = = = = = = R S . . . . . . . . . . ",
". . . . . T m = 3 y x U V = = = = = = U 8 = = = = = = W b . . . . . . . . . . . ",
". . . . . X = = = Y Z P ` 6 = = = = = = = = = = = = 6 ` . . . . . . . . . . . . ",
". . . . .  .= = = = ..+.. I @.= = = = = = = = = = @.I . . . . . . . . . . . . . ",
". . . . ` U = = = = = #.i . ~ { = = = = = = = = { ~ . . . . . . . . . . . . . . ",
". . . . $.= = = = | %.&.. . . *.= = = = = = = = =.. . . . . . . . . . . . . . . ",
". . . . @.= c -.;.. . . . . >.= = = = = = = = = = 3 4 . . . . . . . . . . . . . ",
". . . I >.o . . . . . T . ,.= = = = = = = = = = = = '.s . . . . . . . . . . . . ",
". . . . . . . . . . *.).!.= = = = = = = = = = = = = = ~.+.. . . . . . . . . . . ",
". . . . . . . . . {.= = = = = = = = = Y Y = = = = = = = ].^.. . . . . . . . . . ",
". . . . . . . . . g 8 = = = = = = = 3 4 4 3 = = = = = = = /.$ . . . . . . . . . ",
". . . . . . . . $ (.= = = = = = = N . . . . N = = = = = = = _.# . . . . . . . . ",
". . . . . . . :.<.= = = = = = ^ [.. . . . . . [.^ = = = = = = }.~ . . . . . . . ",
". . . . . . |.1.= = = = = = ^ 2.. i . . . . . . 2.^ = = = = = = @.I . . . . . . ",
". . . . . : 3.= = = = = = * 4.. 5.9 6.. . . . . . 4.* = = = = = = 7.` . . . . . ",
". . . . 5 8.= = = = = = } [ . 9.0.= a.b.. . . 4 . . [ } = = = = = = W 1 . . . . ",
". . . b c = = = = = = 8 P . . c.@ = = U X . d.e.. . . P 8 = = = = = = R S . . . ",
". . j k = = = = = = e d . . . . p q = e Q f.= }.. . . . d e = = = = = = f g . . ",
". . r = = = = = = m l . . . . . . i g.l h.= = ^ i.. . . . l m = = = = = = j.. . ",
". . p k.= = = = D l.. . . . . . . . 4 m.= = = = f.. . . . . l.D = = = = <.:.. . ",
". . . i h = = C _ . . . . . . . . s r = = = = = | . . . . . . _ C = = n.$ . . . ",
". . . . s o.n o . . . . . . . . . ; {.@.^ = = = = p.. . . . . . o n j.i . . . . ",
". . . . . 4 q.. . . . . . . . . . . . . S r.3.^ = s.. . . . . . . t.+.. . . . . ",
". . . . . . . . . . . . . . . . . . . . . . . u.d.k.s . . . . . . . . . . . . . ",
". . . . . . . . . . . . . . . . . . . . . . . . . . . . . . . . . . . . . . . . ",
". . . . . . . . . . . . . . . . . . . . . . . . . . . . . . . . . . . . . . . . "};
