/* XPM */
static char * tasto4orario_xpm[] = {
"40 40 116 2",
"  	c None",
". 	c #FFFFFF",
"+ 	c #EEEEEE",
"@ 	c #A4A4A4",
"# 	c #A8A8A8",
"$ 	c #EDEDED",
"% 	c #F9F9F9",
"& 	c #8C8C8C",
"* 	c #141414",
"= 	c #030303",
"- 	c #D4D4D4",
"; 	c #D7D7D7",
"> 	c #040404",
", 	c #101010",
"' 	c #F6F6F6",
") 	c #FEFEFE",
"! 	c #212121",
"~ 	c #000000",
"{ 	c #464646",
"] 	c #484848",
"^ 	c #1F1F1F",
"/ 	c #A1A1A1",
"( 	c #FCFCFC",
"_ 	c #868686",
": 	c #989898",
"< 	c #9D9D9D",
"[ 	c #828282",
"} 	c #E3E3E3",
"| 	c #090909",
"1 	c #080808",
"2 	c #C6C6C6",
"3 	c #C9C9C9",
"4 	c #070707",
"5 	c #E2E2E2",
"6 	c #7C7C7C",
"7 	c #111111",
"8 	c #CFCFCF",
"9 	c #D1D1D1",
"0 	c #171717",
"a 	c #797979",
"b 	c #262626",
"c 	c #B8B8B8",
"d 	c #BBBBBB",
"e 	c #121212",
"f 	c #242424",
"g 	c #F4F4F4",
"h 	c #020202",
"i 	c #767676",
"j 	c #F5F5F5",
"k 	c #787878",
"l 	c #050505",
"m 	c #C5C5C5",
"n 	c #999999",
"o 	c #1D1D1D",
"p 	c #F7F7F7",
"q 	c #9A9A9A",
"r 	c #222222",
"s 	c #959595",
"t 	c #7F7F7F",
"u 	c #616161",
"v 	c #A7A7A7",
"w 	c #DDDDDD",
"x 	c #FBFBFB",
"y 	c #DEDEDE",
"z 	c #A9A9A9",
"A 	c #646464",
"B 	c #131313",
"C 	c #757575",
"D 	c #7B7B7B",
"E 	c #777777",
"F 	c #060606",
"G 	c #969696",
"H 	c #CACACA",
"I 	c #232323",
"J 	c #C8C8C8",
"K 	c #F8F8F8",
"L 	c #818181",
"M 	c #0D0D0D",
"N 	c #EAEAEA",
"O 	c #161616",
"P 	c #151515",
"Q 	c #7A7A7A",
"R 	c #FAFAFA",
"S 	c #B5B5B5",
"T 	c #6A6A6A",
"U 	c #292929",
"V 	c #D2D2D2",
"W 	c #ADADAD",
"X 	c #B2B2B2",
"Y 	c #B9B9B9",
"Z 	c #F3F3F3",
"` 	c #CDCDCD",
" .	c #DBDBDB",
"..	c #D3D3D3",
"+.	c #555555",
"@.	c #010101",
"#.	c #DADADA",
"$.	c #5B5B5B",
"%.	c #E0E0E0",
"&.	c #444444",
"*.	c #2E2E2E",
"=.	c #6C6C6C",
"-.	c #FDFDFD",
";.	c #A2A2A2",
">.	c #3D3D3D",
",.	c #666666",
"'.	c #393939",
").	c #B3B3B3",
"!.	c #343434",
"~.	c #E8E8E8",
"{.	c #ECECEC",
"].	c #F1F1F1",
"^.	c #ACACAC",
"/.	c #2F2F2F",
"(.	c #A6A6A6",
"_.	c #D0D0D0",
". . . . . . . . . . . . . . . . . . . . . . . . . . . . . . . . . . . . . . . . ",
". . . . . . . . . . . . . . . . . . . . . . . . . . . . . . . . . . . . . . . . ",
". . . . . . . . . . . . . . . . . . . . . . . . . . . . . . . . . . . . . . . . ",
". . . . . . . . . . . . . . . . . . . . . . . . . . . . . . . . . . . . . . . . ",
". . . . . . . . . . . . . . . . . . . . . . . . . . . . . . . . . . . . . . . . ",
". . . . . . . . . . . . . . . . . . . . . . . . . . . . . . . . . . . . . . . . ",
". . . . . . . . . . . . . . . . . . . . . . . . . . . . . . . . . . . . . . . . ",
". . . . + @ . . . . . . . . . . . . . . . . . . . . . . . . . . . . # $ . . . . ",
". . % & * = - . . . . . . . . . . . . . . . . . . . . . . . . . . ; > , & ' . . ",
") @ ! ~ ~ ~ { ) . . . . . . . . . . . . . . . . . . . . . . . . . ] ~ ~ ~ ^ / ( ",
"_ ~ ~ ~ ~ ~ ~ : . . . . . . . . . . . . . . . . . . . . . . . . < ~ ~ ~ ~ ~ ~ [ ",
"} | ~ ~ ~ ~ ~ 1 2 . . . . . . . . . . . . . . . . . . . . . . 3 | ~ ~ ~ ~ ~ 4 5 ",
". 6 ~ ~ ~ ~ ~ ~ 7 8 . . . . . . . . . . . . . . . . . . . . 9 0 ~ ~ ~ ~ ~ ~ a . ",
". ' b ~ ~ ~ ~ ~ ~ , c . . . . . . . . . . . . . . . . . . d e ~ ~ ~ ~ ~ ~ f g . ",
". . 3 4 ~ ~ ~ ~ ~ ~ h i j . . . . . . . . . . . . . . ' k = ~ ~ ~ ~ ~ ~ l m . . ",
". . . n ~ ~ ~ ~ ~ ~ ~ ~ o : ' . . . . . . . . . . p q r ~ ~ ~ ~ ~ ~ ~ ~ s . . . ",
". . . . t ~ ~ ~ ~ ~ ~ ~ ~ ~ , u v w x . . x y z A B ~ ~ ~ ~ ~ ~ ~ ~ ~ C . . . . ",
". . . . . D ~ ~ ~ ~ ~ ~ ~ ~ ~ ~ ~ ~ > 7 7 > ~ ~ ~ ~ ~ ~ ~ ~ ~ ~ ~ ~ E . . . . . ",
". . . . . . n F ~ ~ ~ ~ ~ ~ ~ ~ ~ ~ ~ ~ ~ ~ ~ ~ ~ ~ ~ ~ ~ ~ ~ ~ > G . . . . . . ",
". . . . . . . H b ~ ~ ~ ~ ~ ~ ~ ~ ~ ~ ~ ~ ~ ~ ~ ~ ~ ~ ~ ~ ~ ~ I J . . . . . . . ",
". . . . . . . . K L M ~ ~ ~ ~ ~ ~ ~ ~ ~ ~ ~ ~ ~ ~ ~ ~ ~ ~ M t p . . . . . . . . ",
". . . . . . . . . . N D O ~ ~ ~ ~ ~ ~ ~ ~ ~ ~ ~ ~ ~ ~ P Q N . . . . . . . . . . ",
". . . . . . . . . . . . R S T U h ~ ~ ~ ~ ~ ~ h U T S R . . . . . . . . . . . . ",
". . . . . . . . . . . . . . . . g V c W X Y 9 Z . . . . . . . . . . . . . . . . ",
". . . . . . . . . . . . . . . . . . . . . . . . . . . . . . . . . . . . . . . . ",
". . . . . . . . . . . . . . . . . . . . . . . . . . . . . . . . . . . . . . . . ",
". . . . . . . . . . . . . . . . . . . . . . . . . . . . . . . . . . . . . . . . ",
". . . . . . . . . . . . . . . . . . . . . . . . . . . . . . . . . . . . . . . . ",
". . . . . . . . . . . . . . . . . . . . . . . . . . . . . . . . . . . . . . . . ",
". . . . . . . . . . . . . . . `  .. . . . . . . . . . . . . . . . . . . . . . . ",
". . . . . . . . . . . . . ..+.@.Y . . . . . . . . . . . . . . . . . . . . . . . ",
". . . . . . . . . . . #.$.h ~ ~ Y . . . . . . . . . . . . . . . . . . . . . . . ",
". . . . . . . . . %.u = ~ ~ ~ ~ Y &.| | | *.. . . . =.| | | | -.. . . . . . . . ",
". . . . . . . . ;.l ~ ~ ~ ~ ~ ~ Y >.~ ~ ~ b . . . . ,.~ ~ ~ ~ ( . . . . . . . . ",
". . . . . . . . . d '.~ ~ ~ ~ ~ Y >.~ ~ ~ b . . . . ,.~ ~ ~ ~ ( . . . . . . . . ",
". . . . . . . . . . ) ).!.~ ~ ~ Y + ~.~.~.{.. . . . ].~.~.~.~.. . . . . . . . . ",
". . . . . . . . . . . . ) ^./.~ Y . . . . . . . . . . . . . . . . . . . . . . . ",
". . . . . . . . . . . . . . -.(._.. . . . . . . . . . . . . . . . . . . . . . . ",
". . . . . . . . . . . . . . . . . . . . . . . . . . . . . . . . . . . . . . . . ",
". . . . . . . . . . . . . . . . . . . . . . . . . . . . . . . . . . . . . . . . "};
