/* XPM */
static char * tasto2_xpm[] = {
"40 40 123 2",
"  	c None",
". 	c #FFFFFF",
"+ 	c #AAAAAA",
"@ 	c #4B4B4B",
"# 	c #F5F5F5",
"$ 	c #F8F8F8",
"% 	c #555555",
"& 	c #A1A1A1",
"* 	c #030303",
"= 	c #000000",
"- 	c #3D3D3D",
"; 	c #F1F1F1",
"> 	c #474747",
", 	c #979797",
"' 	c #020202",
") 	c #363636",
"! 	c #EDEDED",
"~ 	c #F2F2F2",
"{ 	c #3F3F3F",
"] 	c #8E8E8E",
"^ 	c #010101",
"/ 	c #2F2F2F",
"( 	c #E9E9E9",
"_ 	c #EFEFEF",
": 	c #383838",
"< 	c #A7A7A7",
"[ 	c #050505",
"} 	c #292929",
"| 	c #E5E5E5",
"1 	c #EBEBEB",
"2 	c #313131",
"3 	c #B0B0B0",
"4 	c #070707",
"5 	c #232323",
"6 	c #DFDFDF",
"7 	c #E6E6E6",
"8 	c #2B2B2B",
"9 	c #B8B8B8",
"0 	c #0A0A0A",
"a 	c #1E1E1E",
"b 	c #DADADA",
"c 	c #F4F4F4",
"d 	c #E1E1E1",
"e 	c #252525",
"f 	c #C0C0C0",
"g 	c #0D0D0D",
"h 	c #191919",
"i 	c #D4D4D4",
"j 	c #F9F9F9",
"k 	c #FEFEFE",
"l 	c #DBDBDB",
"m 	c #1F1F1F",
"n 	c #C8C8C8",
"o 	c #111111",
"p 	c #141414",
"q 	c #D0D0D0",
"r 	c #FCFCFC",
"s 	c #D5D5D5",
"t 	c #1A1A1A",
"u 	c #CECECE",
"v 	c #151515",
"w 	c #101010",
"x 	c #C9C9C9",
"y 	c #CFCFCF",
"z 	c #D7D7D7",
"A 	c #0C0C0C",
"B 	c #BFBFBF",
"C 	c #090909",
"D 	c #B7B7B7",
"E 	c #C1C1C1",
"F 	c #FDFDFD",
"G 	c #A9A9A9",
"H 	c #AFAFAF",
"I 	c #B9B9B9",
"J 	c #242424",
"K 	c #E0E0E0",
"L 	c #BEBEBE",
"M 	c #202020",
"N 	c #040404",
"O 	c #2A2A2A",
"P 	c #EEEEEE",
"Q 	c #EAEAEA",
"R 	c #373737",
"S 	c #848484",
"T 	c #797979",
"U 	c #818181",
"V 	c #747474",
"W 	c #777777",
"X 	c #696969",
"Y 	c #CDCDCD",
"Z 	c #626262",
"` 	c #606060",
" .	c #D6D6D6",
"..	c #6A6A6A",
"+.	c #575757",
"@.	c #FAFAFA",
"#.	c #343434",
"$.	c #4E4E4E",
"%.	c #505050",
"&.	c #7F7F7F",
"*.	c #464646",
"=.	c #F6F6F6",
"-.	c #484848",
";.	c #898989",
">.	c #3E3E3E",
",.	c #F3F3F3",
"'.	c #404040",
").	c #949494",
"!.	c #393939",
"~.	c #9D9D9D",
"{.	c #F7F7F7",
"].	c #303030",
"^.	c #323232",
"/.	c #666666",
"(.	c #595959",
"_.	c #535353",
":.	c #C7C7C7",
"<.	c #FBFBFB",
"[.	c #5C5C5C",
"}.	c #515151",
"|.	c #656565",
"1.	c #E7E7E7",
"2.	c #E4E4E4",
". . . . . . . . . . . . . . . . . . . . . . . . . . . . . . . . . . . . . . . . ",
". . . . . . . . . . . . . . . . . . . . . . . . . . . . . . . . . . . . . . . . ",
". . . . . + @ # . . . . . . . . . . . . . . . . . . . . . . . . $ % + . . . . . ",
". . . . & * = - ; . . . . . . . . . . . . . . . . . . . . . . # > = * & . . . . ",
". . . , ' = = = ) ! . . . . . . . . . . . . . . . . . . . . ~ { = = = ' , . . . ",
". . ] ^ = = = = = / ( . . . . . . . . . . . . . . . . . . _ : = = = = = ^ ] . . ",
". . < [ = = = = = = } | . . . . . . . . . . . . . . . . 1 2 = = = = = = [ < . . ",
". . . 3 4 = = = = = = 5 6 . . . . . . . . . . . . . . 7 8 = = = = = = 4 3 . . . ",
". . . . 9 0 = = = = = = a b . c . . . . . . . . . . d e = = = = = = 0 9 . . . . ",
". . . . . f g = = = = = = h i j k . . . . . . . . l m = = = = = = g f . . . . . ",
". . . . . . n o = = = = = = p q r k k . . . . . s t = = = = = = o n . . . . . . ",
". . . . . . . u v = = = = = = w x . . . . . . y v = = = = = = v u . . . . . . . ",
". . . . . . . . z h = = = = = = A B . . . . n o = = = = = = h s . . . . . . . . ",
". . . . . . k . . z [ = = = = = = C D . . E g = = = = = = m l . . . . . . . . . ",
". . . . . . . . . F G = = = = = = = 4 H I 0 = = = = = = J K . . . . . . . . . . ",
". . . . . . . . . . k L M = = = = = = N 4 = = = = = = O 7 . . . . . . . . . . . ",
". . . . . . . . . . k F P 2 = = = = = = = = = = = = 2 Q . . . . . . . . . . . . ",
". . . . . . . . . . . k . P R = = = = = = = = = = R P . . . . . . . . . . . . . ",
". . . . . . . . . . . k k . ~ { = = = = = = = = { ~ . . . . . . . . . . . . . . ",
". . . . . . . . . . . k . . . S = = = = = = = = T . . . . . . . . . . . . . . . ",
". . . . . . . . . . . . . . U = = = = = = = = = = V k . . . . . . . . . . . . . ",
". . . . . . . . . . . k . W = = = = = = = = = = = = X F . . . . . . . . . . . . ",
". . . . . . . . . . k Y Z = = = = = = = = = = = = = = ` r . . . . . . . . . . . ",
". . . . . . . . . k  ./ = = = = = = = ....= = = = = = = +.@.. . . . . . . . . . ",
". . . . . . . . . _ #.= = = = = = = V k k V = = = = = = = $.$ . . . . . . . . . ",
". . . . . . . . $ %.= = = = = = = &.. . . . &.= = = = = = = *.# . . . . . . . . ",
". . . . . . . =.-.= = = = = = ^ ;.. . . . . . ;.^ = = = = = = >.~ . . . . . . . ",
". . . . . . ,.'.= = = = = = ^ ).. r . . . . . . ).^ = = = = = = R P . . . . . . ",
". . . . . _ !.= = = = = = * ~.. {.F k . . . . . . ~.* = = = = = = ].Q . . . . . ",
". . . . 1 ^.= = = = = = [ < . =.. . . . . . . k . . < [ = = = = = = O | . . . . ",
". . . 7 8 = = = = = = 4 H . . k . . . . . . k ,.. . . H 4 = = = = = = J K . . . ",
". . d e = = = = = = 0 9 . . . . . . . . . . . k . . . . 9 0 = = = = = = a b . . ",
". . /.= = = = = = g f . . . . . . . . . . . . . k . . . . f g = = = = = = (.. . ",
". . j _.= = = = w :.. . . . . . . . . . . . . . . . . . . . :.w = = = = -.=.. . ",
". . . <.[.= = v u . . . . . . . . k . . . . . . . . . . . . . u v = = }.$ . . . ",
". . . . F |.h i . . . . . . . . . @.F k . . . . . . . . . . . . i h (.<.. . . . ",
". . . . . k 1.. . . . . . . . . . . . . . . . . . . . . . . . . . 2.r . . . . . ",
". . . . . . . . . . . . . . . . . . . . . . . . . . k . . . . . . . . . . . . . ",
". . . . . . . . . . . . . . . . . . . . . . . . . . . . . . . . . . . . . . . . ",
". . . . . . . . . . . . . . . . . . . . . . . . . . . . . . . . . . . . . . . . "};
