/* XPM */
static char * prova_xpm[] = {
"40 40 45 1",
" 	c None",
".	c #FFFFFF",
"+	c #CCCCCC",
"@	c #C6C6C6",
"#	c #F2F2F2",
"$	c #1A1A1A",
"%	c #000000",
"&	c #C7C7C7",
"*	c #FBFBFB",
"=	c #EEEEEE",
"-	c #404040",
";	c #F6F6F6",
">	c #606060",
",	c #767676",
"'	c #B8B8B8",
")	c #010101",
"!	c #040404",
"~	c #CBCBCB",
"{	c #1E1E1E",
"]	c #2D2D2D",
"^	c #F9F9F9",
"/	c #696969",
"(	c #808080",
"_	c #232323",
":	c #0A0A0A",
"<	c #A7A7A7",
"[	c #303030",
"}	c #F8F8F8",
"|	c #A0A0A0",
"1	c #9F9F9F",
"2	c #919191",
"3	c #ACACAC",
"4	c #FDFDFD",
"5	c #DBDBDB",
"6	c #DCDCDC",
"7	c #F0F0F0",
"8	c #070707",
"9	c #F1F1F1",
"0	c #0F0F0F",
"a	c #151515",
"b	c #0B0B0B",
"c	c #FEFEFE",
"d	c #E8E8E8",
"e	c #C9C9C9",
"f	c #C3C3C3",
"........................................",
"........................................",
"........................................",
"...............+@@@@@#..................",
"...............$%%%%%&..................",
"...............$%%%%%&..................",
"...............$%%%%%&..................",
"...............$%%%%%&..................",
"...............$%%%%%&..................",
"...............$%%%%%&..................",
"........*......$%%%%%&..................",
".......=-;.....$%%%%%&..................",
".......>%,.....$%%%%%&..................",
"......')%!~....$%%%%%&..................",
".....#{%%%]^...$%%%%%&..................",
"...../%%%%%(...$%%%%%&..................",
"....=_%:<!%[}..$%%%%%&..................",
".....*|1.234...$%%%%%&..................",
"......4556.....$%%%%%&..................",
"......7%%8.....$%%%%%&..................",
"......7%%8.....$%%%%%&..................",
"......7%%8.....$%%%%%&..................",
"......900a.....$%%%%%&..................",
"...............$%%%%%&..................",
"...............$%%%%%&..................",
"...............$%%%%%&..................",
".......444.....$%%%%%&..................",
"......7!!b.....$%%%%%&..................",
"......7%%8.....$%%%%%&..................",
"......7%%8.....$%%%%%&..................",
"......7%%8.....$%%%%%&..................",
"......cddd.....$%%%%%&..................",
"...............$%%%%%&..................",
"...............$%%%%%&..................",
"...............$%%%%%&..................",
"...............$%%%%%&..................",
"...............efffff#..................",
"........................................",
"........................................",
"........................................"};
