/* XPM */
static char * tasto2_1caso4_xpm[] = {
"40 40 158 2",
"  	c None",
". 	c #FFFFFF",
"+ 	c #F9F9F9",
"@ 	c #666666",
"# 	c #E1E1E1",
"$ 	c #A7A7A7",
"% 	c #8E8E8E",
"& 	c #FBFBFB",
"* 	c #535353",
"= 	c #000000",
"- 	c #252525",
"; 	c #E6E6E6",
"> 	c #EEEEEE",
", 	c #B0B0B0",
"' 	c #050505",
") 	c #010101",
"! 	c #979797",
"~ 	c #FDFDFD",
"{ 	c #5C5C5C",
"] 	c #2B2B2B",
"^ 	c #EBEBEB",
"/ 	c #818181",
"( 	c #373737",
"_ 	c #929292",
": 	c #EAEAEA",
"< 	c #B8B8B8",
"[ 	c #070707",
"} 	c #020202",
"| 	c #A1A1A1",
"1 	c #FEFEFE",
"2 	c #656565",
"3 	c #323232",
"4 	c #EFEFEF",
"5 	c #D4D4D4",
"6 	c #040404",
"7 	c #4A4A4A",
"8 	c #A5A5A5",
"9 	c #F4F4F4",
"0 	c #C0C0C0",
"a 	c #0A0A0A",
"b 	c #030303",
"c 	c #AAAAAA",
"d 	c #E7E7E7",
"e 	c #191919",
"f 	c #393939",
"g 	c #F3F3F3",
"h 	c #0D0D0D",
"i 	c #5D5D5D",
"j 	c #C8C8C8",
"k 	c #4B4B4B",
"l 	c #151515",
"m 	c #404040",
"n 	c #F6F6F6",
"o 	c #7E7E7E",
"p 	c #7F7F7F",
"q 	c #CECECE",
"r 	c #111111",
"s 	c #3D3D3D",
"t 	c #F5F5F5",
"u 	c #101010",
"v 	c #484848",
"w 	c #F8F8F8",
"x 	c #D2D2D2",
"y 	c #747474",
"z 	c #D5D5D5",
"A 	c #363636",
"B 	c #F1F1F1",
"C 	c #C7C7C7",
"D 	c #505050",
"E 	c #DADADA",
"F 	c #8A8A8A",
"G 	c #292929",
"H 	c #6A6A6A",
"I 	c #CDCDCD",
"J 	c #5A5A5A",
"K 	c #2F2F2F",
"L 	c #EDEDED",
"M 	c #848484",
"N 	c #7C7C7C",
"O 	c #616161",
"P 	c #D3D3D3",
"Q 	c #141414",
"R 	c #E9E9E9",
"S 	c #222222",
"T 	c #D1D1D1",
"U 	c #585858",
"V 	c #FCFCFC",
"W 	c #AFAFAF",
"X 	c #232323",
"Y 	c #E5E5E5",
"Z 	c #626262",
"` 	c #202020",
" .	c #1E1E1E",
"..	c #DFDFDF",
"+.	c #777777",
"@.	c #313131",
"#.	c #9D9D9D",
"$.	c #F2F2F2",
"%.	c #F7F7F7",
"&.	c #D8D8D8",
"*.	c #949494",
"=.	c #8B8B8B",
"-.	c #D6D6D6",
";.	c #676767",
">.	c #161616",
",.	c #898989",
"'.	c #0C0C0C",
").	c #C6C6C6",
"!.	c #545454",
"~.	c #A3A3A3",
"{.	c #090909",
"].	c #BFBFBF",
"^.	c #989898",
"/.	c #060606",
"(.	c #B6B6B6",
"_.	c #B7B7B7",
":.	c #707070",
"<.	c #ADADAD",
"[.	c #CBCBCB",
"}.	c #E0E0E0",
"|.	c #7A7A7A",
"1.	c #B9B9B9",
"2.	c #9F9F9F",
"3.	c #8C8C8C",
"4.	c #858585",
"5.	c #767676",
"6.	c #E8E8E8",
"7.	c #C1C1C1",
"8.	c #8F8F8F",
"9.	c #636363",
"0.	c #FAFAFA",
"a.	c #4F4F4F",
"b.	c #E2E2E2",
"c.	c #3E3E3E",
"d.	c #9A9A9A",
"e.	c #474747",
"f.	c #CFCFCF",
"g.	c #DEDEDE",
"h.	c #DCDCDC",
"i.	c #3F3F3F",
"j.	c #727272",
"k.	c #CCCCCC",
"l.	c #1A1A1A",
"m.	c #DBDBDB",
"n.	c #696969",
"o.	c #1F1F1F",
"p.	c #606060",
"q.	c #2A2A2A",
"r.	c #575757",
"s.	c #242424",
"t.	c #4E4E4E",
"u.	c #464646",
"v.	c #383838",
"w.	c #E4E4E4",
"x.	c #303030",
"y.	c #555555",
"z.	c #595959",
"A.	c #515151",
". . . . . . . . . . . . . . . . . . . . . . . . . . . . . . . . . . . . . . . . ",
". . . . . . . . . . . . . . . . . . . . . . . . . . . . . . . . . . . . . . . . ",
". . . . . . + @ # . . . . . . . . . . . . . . . . . . . . . . . . $ % . . . . . ",
". . . . . & * = - ; . . . . . . . . > . . . . . . . . . . . . . , ' ) ! . . . . ",
". . . . ~ { = = = ] ^ . . . . . . . / ( _ : . . . . . . . . . < [ = = } | . . . ",
". . . 1 2 = = = = = 3 4 . . . . . . 5 = = 6 7 8 9 . . . . . 0 a = = = = b c . . ",
". . . d e = = = = = = f g . . . . . . ] = = = = h i > . . j h = = = = = = k . . ",
". . . . 5 l = = = = = = m n . . . . . o = = = = = p . . q r = = = = = = s t . . ",
". . . . . q u = = = = = = v w . . . . x = = = = y . . z l = = = = = = A B . . . ",
". . . . . . C h = = = = = = D E F . . . G = = H I J z e = = = = = = K L . . . . ",
". . . . . . . 0 a = = = = = = [ = M . . N = O P Q = ' = = = = = = G R . . . . . ",
". . . . . . . . < [ = = = = = = = S 9 . T U V W 6 = = = = = = = X Y . . . . . . ",
". . . . . . . . . W ' = = = = = = Z . . . & . : ` = = = = = =  .... . . . . . . ",
". . . . . . . . . . $ b = = = = = = +.. . . > @.= = = = = = e E . . . . . . . . ",
". . . . . . . . . . . #.) = = = = = = / . $.( = = = = = = Q 5 . . . . . . . . . ",
". . . . . . . . . %.&.. *.) = = = = = = =.-.;.= = = = = u I + c . . . . . . . . ",
". . . . . . . . + k >.-.. ,.= = = = = = [ < . #.b = = '.).& !.= % . . . . . . . ",
". . . . B ~ . & !.= = X & . p = = = = = = a 0 . ~.b {.].. ~.= = ) ^.. . . . . . ",
". . . . F @ 1 ;.= = /.(.. . . y = = = = = = h C . y _.. . 1 @ = = } q . . . . . ",
". . . . ( = :.0 a 6 <.. . . . 1 H = = = = = = r [.^ . . . . ~ { = y . . . . . . ",
". . . }.) = = |.1.8 . . . . . 1 B O = = = = = = {.1.. . . . . & 2.1 . . . . . . ",
". . . 3.= = = = 4.. . . . . . 5.6.V U = = = = = = a 7.. . . . . . . . . . . . . ",
". . . f = = = = = 8.. . . . p = 9.. 0.a.= = = = = = h j . . . . . . . . . . . . ",
". . b.) = = = ) c.d.1 . . ,.= = = M . w e.= = = = = = r f.. . . . . . . . . . . ",
". . 8.= = G 4.g.. . . . *.) = = = = Z E h.i.= = = = = = l z . . . . . . . . . . ",
". . * j.k.. . . . . . #.) = = = = = = y . $.( = = = = = = l.m.. . . . . . . . . ",
". . ~ . . . . . . . $ b = = = = = = n.1 . . > @.= = = = = = o.# . . . . . . . . ",
". . . . . . . . . W ' = = = = = = p.~ . . . . : q.= = = = = = - ; . . . . . . . ",
". . . . . . . . < [ = = = = = = r.V . . . . . . ; s.= = = = = = ] ^ . . . . . . ",
". . . . . . . 0 a = = = = = = t.0.. . . . . . . . }.o.= = = = = = @.4 . . . . . ",
". . . . . . C h = = = = = = u.w . . . . . . . . . . m.e = = = = = = v.$.. . . . ",
". . . . . q u = = = = = = c.t . . . . . . . . . . . . z l = = = = = = i.t . . . ",
". . . . 5 l = = = = = = ( $.. . . . . . . . . . . . . . q r = = = = = = e.w . . ",
". . . w.e = = = = = = x.> . . . . . . . . . . . . . . . . j h = = = = = = y.. . ",
". . . V z.= = = = = q.: . . . . . . . . . . . . . . . . . . 0 a = = = = b c . . ",
". . . . & A.= = = s.Y . . . . . . . . . . . . . . . . . . . . < [ = = } | . . . ",
". . . . . w v =  .}.. . . . . . . . . . . . . . . . . . . . . . , ' ) ! . . . . ",
". . . . . . n z.E . . . . . . . . . . . . . . . . . . . . . . . . $ % . . . . . ",
". . . . . . . . . . . . . . . . . . . . . . . . . . . . . . . . . . . . . . . . ",
". . . . . . . . . . . . . . . . . . . . . . . . . . . . . . . . . . . . . . . . "};
