/* XPM */
static char * tasto2caso1_xpm[] = {
"40 40 152 2",
"  	c None",
". 	c #FFFFFF",
"+ 	c #8E8E8E",
"@ 	c #A7A7A7",
"# 	c #E1E1E1",
"$ 	c #666666",
"% 	c #F9F9F9",
"& 	c #979797",
"* 	c #010101",
"= 	c #050505",
"- 	c #B0B0B0",
"; 	c #EEEEEE",
"> 	c #E6E6E6",
", 	c #252525",
"' 	c #000000",
") 	c #535353",
"! 	c #FBFBFB",
"~ 	c #A1A1A1",
"{ 	c #020202",
"] 	c #070707",
"^ 	c #B8B8B8",
"/ 	c #EAEAEA",
"( 	c #929292",
"_ 	c #373737",
": 	c #818181",
"< 	c #EBEBEB",
"[ 	c #2B2B2B",
"} 	c #5C5C5C",
"| 	c #FDFDFD",
"1 	c #AAAAAA",
"2 	c #030303",
"3 	c #0A0A0A",
"4 	c #C0C0C0",
"5 	c #F4F4F4",
"6 	c #A5A5A5",
"7 	c #4A4A4A",
"8 	c #040404",
"9 	c #D4D4D4",
"0 	c #EFEFEF",
"a 	c #323232",
"b 	c #656565",
"c 	c #FEFEFE",
"d 	c #4B4B4B",
"e 	c #0D0D0D",
"f 	c #C8C8C8",
"g 	c #5D5D5D",
"h 	c #F3F3F3",
"i 	c #393939",
"j 	c #191919",
"k 	c #E7E7E7",
"l 	c #F5F5F5",
"m 	c #3D3D3D",
"n 	c #111111",
"o 	c #CECECE",
"p 	c #7F7F7F",
"q 	c #7E7E7E",
"r 	c #F6F6F6",
"s 	c #404040",
"t 	c #151515",
"u 	c #F1F1F1",
"v 	c #363636",
"w 	c #D5D5D5",
"x 	c #747474",
"y 	c #D2D2D2",
"z 	c #F8F8F8",
"A 	c #484848",
"B 	c #101010",
"C 	c #EDEDED",
"D 	c #2F2F2F",
"E 	c #5A5A5A",
"F 	c #CDCDCD",
"G 	c #6A6A6A",
"H 	c #292929",
"I 	c #8A8A8A",
"J 	c #DADADA",
"K 	c #505050",
"L 	c #C7C7C7",
"M 	c #E9E9E9",
"N 	c #141414",
"O 	c #D3D3D3",
"P 	c #616161",
"Q 	c #7C7C7C",
"R 	c #848484",
"S 	c #E5E5E5",
"T 	c #232323",
"U 	c #AFAFAF",
"V 	c #FCFCFC",
"W 	c #585858",
"X 	c #D1D1D1",
"Y 	c #222222",
"Z 	c #DFDFDF",
"` 	c #1E1E1E",
" .	c #202020",
"..	c #626262",
"+.	c #313131",
"@.	c #777777",
"#.	c #F2F2F2",
"$.	c #9D9D9D",
"%.	c #3F3F3F",
"&.	c #949494",
"*.	c #D8D8D8",
"=.	c #F7F7F7",
"-.	c #545454",
";.	c #C6C6C6",
">.	c #0C0C0C",
",.	c #898989",
"'.	c #D6D6D6",
").	c #161616",
"!.	c #989898",
"~.	c #A3A3A3",
"{.	c #BFBFBF",
"].	c #090909",
"^.	c #B7B7B7",
"/.	c #B6B6B6",
"(.	c #060606",
"_.	c #676767",
":.	c #ADADAD",
"<.	c #707070",
"[.	c #9F9F9F",
"}.	c #B9B9B9",
"|.	c #7A7A7A",
"1.	c #E0E0E0",
"2.	c #C1C1C1",
"3.	c #858585",
"4.	c #8C8C8C",
"5.	c #8F8F8F",
"6.	c #CFCFCF",
"7.	c #9A9A9A",
"8.	c #3E3E3E",
"9.	c #E2E2E2",
"0.	c #797979",
"a.	c #DEDEDE",
"b.	c #DBDBDB",
"c.	c #1A1A1A",
"d.	c #CCCCCC",
"e.	c #727272",
"f.	c #1F1F1F",
"g.	c #696969",
"h.	c #2A2A2A",
"i.	c #606060",
"j.	c #242424",
"k.	c #575757",
"l.	c #FAFAFA",
"m.	c #4E4E4E",
"n.	c #383838",
"o.	c #464646",
"p.	c #474747",
"q.	c #555555",
"r.	c #303030",
"s.	c #E4E4E4",
"t.	c #595959",
"u.	c #515151",
". . . . . . . . . . . . . . . . . . . . . . . . . . . . . . . . . . . . . . . . ",
". . . . . . . . . . . . . . . . . . . . . . . . . . . . . . . . . . . . . . . . ",
". . . . . + @ . . . . . . . . . . . . . . . . . . . . . . . . # $ % . . . . . . ",
". . . . & * = - . . . . . . . . . . . . . ; . . . . . . . . > , ' ) ! . . . . . ",
". . . ~ { ' ' ] ^ . . . . . . . . . / ( _ : . . . . . . . < [ ' ' ' } | . . . . ",
". . 1 2 ' ' ' ' 3 4 . . . . . 5 6 7 8 ' ' 9 . . . . . . 0 a ' ' ' ' ' b c . . . ",
". . d ' ' ' ' ' ' e f . . ; g e ' ' ' ' [ . . . . . . h i ' ' ' ' ' ' j k . . . ",
". . l m ' ' ' ' ' ' n o . . p ' ' ' ' ' q . . . . . r s ' ' ' ' ' ' t 9 . . . . ",
". . . u v ' ' ' ' ' ' t w . . x ' ' ' ' y . . . . z A ' ' ' ' ' ' B o . . . . . ",
". . . . C D ' ' ' ' ' ' j w E F G ' ' H . . . I J K ' ' ' ' ' ' e L . . . . . . ",
". . . . . M H ' ' ' ' ' ' = ' N O P ' Q . . R ' ] ' ' ' ' ' ' 3 4 . . . . . . . ",
". . . . . . S T ' ' ' ' ' ' ' 8 U V W X . 5 Y ' ' ' ' ' ' ' ] ^ . . . . . . . . ",
". . . . . . . Z ` ' ' ' ' ' '  ./ . ! . . . ..' ' ' ' ' ' = U . . . . . . . . . ",
". . . . . . . . J j ' ' ' ' ' ' +.; . . . @.' ' ' ' ' ' 2 @ . . . . . . . . . . ",
". . . . . . . . . 9 N ' ' ' ' ' ' _ #.. : ' ' ' ' ' ' * $.. . . . . . . . . . . ",
". . . . . . . . 1 % F B ' ' ' ' ' ' %.R ' ' ' ' ' ' * &.. *.=.. . . . . . . . . ",
". . . . . . . + ' -.! ;.>.' ' ' ' ' ' ' ' ' ' ' ' ' ,.. '.).d % . . . . . . . . ",
". . . . . . !.* ' ' ~.. {.].' ' ' ' ' ' ' ' ' ' ' p . ! T ' ' -.! . | u . . . . ",
". . . . . o { ' ' $ c . . ^.] ' ' ' ' ' ' ' ' ' x . . . /.(.' ' _.c $ I . . . . ",
". . . . . . x ' } | . . . . U 8 ' ' ' ' ' ' ' G c . . . . :.8 3 4 <.' _ . . . . ",
". . . . . . c [.! . . . . . }.] ' ' ' ' ' ' ' G c . . . . . 6 }.|.' ' * 1.. . . ",
". . . . . . . . . . . . . 2.3 ' ' ' ' ' ' ' ' ' x . . . . . . 3.' ' ' ' 4.. . . ",
". . . . . . . . . . . . f e ' ' ' ' ' ' ' ' ' ' ' p . . . . 5.' ' ' ' ' i . . . ",
". . . . . . . . . . . 6.n ' ' ' ' ' ' ' ' ' ' ' ' ' ,.. . c 7.8.* ' ' ' * 9.. . ",
". . . . . . . . . . w t ' ' ' ' ' ' %.0.' ' ' ' ' ' * &.. . . . a.3.H ' ' 5.. . ",
". . . . . . . . . b.c.' ' ' ' ' ' _ #.. x ' ' ' ' ' ' * $.. . . . . . d.e.) . . ",
". . . . . . . . # f.' ' ' ' ' ' +.; . . c g.' ' ' ' ' ' 2 @ . . . . . . . | . . ",
". . . . . . . > , ' ' ' ' ' ' h./ . . . . | i.' ' ' ' ' ' = U . . . . . . . . . ",
". . . . . . < [ ' ' ' ' ' ' j.> . . . . . . V k.' ' ' ' ' ' ] ^ . . . . . . . . ",
". . . . . 0 +.' ' ' ' ' ' f.1.. . . . . . . . l.m.' ' ' ' ' ' 3 4 . . . . . . . ",
". . . . #.n.' ' ' ' ' ' j b.. . . . . . . . . . z o.' ' ' ' ' ' e L . . . . . . ",
". . . l %.' ' ' ' ' ' t w . . . . . . . . . . . . l 8.' ' ' ' ' ' B o . . . . . ",
". . z p.' ' ' ' ' ' n o . . . . . . . . . . . . . . #._ ' ' ' ' ' ' t 9 . . . . ",
". . q.' ' ' ' ' ' e f . . . . . . . . . . . . . . . . ; r.' ' ' ' ' ' j s.. . . ",
". . 1 2 ' ' ' ' 3 4 . . . . . . . . . . . . . . . . . . / h.' ' ' ' ' t.V . . . ",
". . . ~ { ' ' ] ^ . . . . . . . . . . . . . . . . . . . . S j.' ' ' u.! . . . . ",
". . . . & * = - . . . . . . . . . . . . . . . . . . . . . . 1.` ' A z . . . . . ",
". . . . . + @ . . . . . . . . . . . . . . . . . . . . . . . . J t.r . . . . . . ",
". . . . . . . . . . . . . . . . . . . . . . . . . . . . . . . . . . . . . . . . ",
". . . . . . . . . . . . . . . . . . . . . . . . . . . . . . . . . . . . . . . . "};
