/* XPM */
static char * tasto2caso3_xpm[] = {
"40 40 152 2",
"  	c None",
". 	c #FFFFFF",
"+ 	c #FDFDFD",
"@ 	c #535353",
"# 	c #8F8F8F",
"$ 	c #E2E2E2",
"% 	c #FCFCFC",
"& 	c #E4E4E4",
"* 	c #727272",
"= 	c #000000",
"- 	c #010101",
"; 	c #393939",
"> 	c #8C8C8C",
", 	c #E0E0E0",
"' 	c #E7E7E7",
") 	c #FEFEFE",
"! 	c #FBFBFB",
"~ 	c #595959",
"{ 	c #191919",
"] 	c #D4D4D4",
"^ 	c #CCCCCC",
"/ 	c #373737",
"( 	c #8A8A8A",
"_ 	c #F1F1F1",
": 	c #656565",
"< 	c #F8F8F8",
"[ 	c #515151",
"} 	c #151515",
"| 	c #CECECE",
"1 	c #292929",
"2 	c #666666",
"3 	c #5C5C5C",
"4 	c #F6F6F6",
"5 	c #484848",
"6 	c #101010",
"7 	c #C7C7C7",
"8 	c #858585",
"9 	c #707070",
"0 	c #F9F9F9",
"a 	c #0D0D0D",
"b 	c #C0C0C0",
"c 	c #DEDEDE",
"d 	c #7A7A7A",
"e 	c #676767",
"f 	c #DADADA",
"g 	c #1E1E1E",
"h 	c #0A0A0A",
"i 	c #B8B8B8",
"j 	c #3E3E3E",
"k 	c #B9B9B9",
"l 	c #545454",
"m 	c #252525",
"n 	c #E1E1E1",
"o 	c #242424",
"p 	c #070707",
"q 	c #AFAFAF",
"r 	c #9A9A9A",
"s 	c #A5A5A5",
"t 	c #040404",
"u 	c #4B4B4B",
"v 	c #F7F7F7",
"w 	c #2B2B2B",
"x 	c #E6E6E6",
"y 	c #E5E5E5",
"z 	c #2A2A2A",
"A 	c #050505",
"B 	c #A7A7A7",
"C 	c #ADADAD",
"D 	c #060606",
"E 	c #161616",
"F 	c #D8D8D8",
"G 	c #323232",
"H 	c #EBEBEB",
"I 	c #EAEAEA",
"J 	c #303030",
"K 	c #030303",
"L 	c #9D9D9D",
"M 	c #B6B6B6",
"N 	c #232323",
"O 	c #D6D6D6",
"P 	c #EFEFEF",
"Q 	c #EEEEEE",
"R 	c #949494",
"S 	c #404040",
"T 	c #F3F3F3",
"U 	c #F2F2F2",
"V 	c #898989",
"W 	c #F5F5F5",
"X 	c #464646",
"Y 	c #7F7F7F",
"Z 	c #505050",
"` 	c #4E4E4E",
" .	c #747474",
"..	c #FAFAFA",
"+.	c #575757",
"@.	c #6A6A6A",
"#.	c #606060",
"$.	c #626262",
"%.	c #222222",
"&.	c #848484",
"*.	c #696969",
"=.	c #777777",
"-.	c #F4F4F4",
";.	c #818181",
">.	c #D2D2D2",
",.	c #7E7E7E",
"'.	c #797979",
").	c #D1D1D1",
"!.	c #7C7C7C",
"~.	c #929292",
"{.	c #3F3F3F",
"].	c #585858",
"^.	c #616161",
"/.	c #4A4A4A",
"(.	c #313131",
"_.	c #D3D3D3",
":.	c #202020",
"<.	c #141414",
"[.	c #CDCDCD",
"}.	c #5A5A5A",
"|.	c #5D5D5D",
"1.	c #DBDBDB",
"2.	c #1F1F1F",
"3.	c #C1C1C1",
"4.	c #B7B7B7",
"5.	c #090909",
"6.	c #D5D5D5",
"7.	c #111111",
"8.	c #C8C8C8",
"9.	c #BFBFBF",
"0.	c #0C0C0C",
"a.	c #CFCFCF",
"b.	c #C6C6C6",
"c.	c #1A1A1A",
"d.	c #A3A3A3",
"e.	c #AAAAAA",
"f.	c #B0B0B0",
"g.	c #9F9F9F",
"h.	c #8E8E8E",
"i.	c #DFDFDF",
"j.	c #020202",
"k.	c #989898",
"l.	c #383838",
"m.	c #E9E9E9",
"n.	c #2F2F2F",
"o.	c #979797",
"p.	c #EDEDED",
"q.	c #363636",
"r.	c #A1A1A1",
"s.	c #474747",
"t.	c #3D3D3D",
"u.	c #555555",
". . . . . . . . . . . . . . . . . . . . . . . . . . . . . . . . . . . . . . . . ",
". . . . . . . . . . . . . . . . . . . . . . . . . . . . . . . . . . . . . . . . ",
". . . . . . . . . . . . . + @ # $ . . . . . . . . . . . . . . . . . . . . . . . ",
". . . . . % & . . . . . . . * = - ; > , . . . . . . . . . . . . . ' ) . . . . . ",
". . . . ! ~ { ] . . . . . . ^ = = = = - / ( _ . . . . . . . . . ] { : + . . . . ",
". . . < [ = = } | . . . . . . 1 = = = = = 2 + . . . . . . . . | } = = 3 ! . . . ",
". . 4 5 = = = = 6 7 . . . . . 8 = = = = 9 ) . . . . . . . . 7 6 = = = = @ 0 . . ",
". . ~ = = = = = = a b . . . . c - = = d b e ! . . . . . . b a = = = = = = 2 . . ",
". . f g = = = = = = h i . . . . j = 8 k h = l 0 . . . . i h = = = = = = m n . . ",
". . . , o = = = = = = p q . . . r # . s t = = u v . . q p = = = = = = w x . . . ",
". . . . y z = = = = = = A B . . ) . . . C D = E F . B A = = = = = = G H . . . . ",
". . . . . I J = = = = = = K L . . . . . . M N O . L K = = = = = = ; P . . . . . ",
". . . . . . Q / = = = = = = - R . . . . . . ! . R - = = = = = = S T . . . . . . ",
". . . . . . . U j = = = = = = - V . . . . . . V - = = = = = = 5 4 . . . . . . . ",
". . . . . . . . W X = = = = = = = Y . . . . Y = = = = = = = Z < . . . . . . . . ",
". . . . . . . . . < ` = = = = = = =  .) )  .= = = = = = = p f . . . . . . . . . ",
". . . . . . . . . . ..+.= = = = = = = @.@.= = = = = = = = = ( . . . . . . . . . ",
". . . . . . . . . . . % #.= = = = = = = = = = = = = = $.%.&.. . . . . . . . . . ",
". . . . . . . . . . . . + *.= = = = = = = = = = = = =.. -.. . . . . ] ;.Q . . . ",
". . . . . . . . . . . . . )  .= = = = = = = = = = ;.. . . . . >.,.w = / . . . . ",
". . . . . . . . . . . . . . . '.= = = = = = = = &.. . . ).!.1 = = = = ~.. . . . ",
". . . . . . . . . . . . . . U {.= = = = = = = = {.U . ! ].= = = = = t I . . . . ",
". . . . . . . . . . . . . Q / = = = = = = = = = = / Q . % ^.= = = = /.. . . . . ",
". . . . . . . . . . . . I (.= = = = = = = = = = = = (.I q _.@.= = = s . . . . . ",
". . . . . . . . . . . x z = = = = = = p t = = = = = = :.t <.[. .= a -.. . . . . ",
". . . . . . . . . . , o = = = = = = h k q p = = = = = = = = }.. Y |.. . . . . . ",
". . . . . . . . . 1.2.= = = = = = a 3.. . 4.5.= = = = = = A 6.. . Q . . . . . . ",
". . . . . . . . 6.{ = = = = = = 7.8.. . . . 9.0.= = = = = = { 6.. . . . . . . . ",
". . . . . . . | } = = = = = = } a.. . . . . . b.6 = = = = = = } | . . . . . . . ",
". . . . . . 8.7.= = = = = = c.6.. . . . . ) d.! [.<.= = = = = = 7.8.. . . . . . ",
". . . . . b a = = = = = = 2.1.. . . . . + 2 = l 0 ] { = = = = = = a b . . . . . ",
". . . . i h = = = = = = m n . . . . . ! 3 = = = e.. f g = = = = = = h i . . . . ",
". . . f.p = = = = = = w x . . . . . . g.= = - h.. . . i.N = = = = = = p f.. . . ",
". . B A = = = = = = (.H . . . . . . . )  .j.k.. . . . . y 1 = = = = = = A B . . ",
". . h.- = = = = = l.P . . . . . . . . . . | . . . . . . . m.n.= = = = = - h.. . ",
". . . o.j.= = = {.U . . . . . . . . . . . . . . . . . . . . p.q.= = = j.o.. . . ",
". . . . r.K = s.W . . . . . . . . . . . . . . . . . . . . . . _ t.= K r.. . . . ",
". . . . . e.u.< . . . . . . . . . . . . . . . . . . . . . . . . W u e.. . . . . ",
". . . . . . . . . . . . . . . . . . . . . . . . . . . . . . . . . . . . . . . . ",
". . . . . . . . . . . . . . . . . . . . . . . . . . . . . . . . . . . . . . . . "};
