/* XPM */
static char * tasto0antiorario_xpm[] = {
"40 40 118 2",
"  	c None",
". 	c #FFFFFF",
"+ 	c #FCFCFC",
"@ 	c #F5F5F5",
"# 	c #8C8C8C",
"$ 	c #4A4A4A",
"% 	c #F8F8F8",
"& 	c #979797",
"* 	c #1B1B1B",
"= 	c #000000",
"- 	c #343434",
"; 	c #A0A0A0",
"> 	c #202020",
", 	c #DCDCDC",
"' 	c #8B8B8B",
") 	c #DFDFDF",
"! 	c #E7E7E7",
"~ 	c #D4D4D4",
"{ 	c #FDFDFD",
"] 	c #A8A8A8",
"^ 	c #252525",
"/ 	c #B3B3B3",
"( 	c #B8B8B8",
"_ 	c #CBCBCB",
": 	c #868686",
"< 	c #131313",
"[ 	c #F0F0F0",
"} 	c #7D7D7D",
"| 	c #0F0F0F",
"1 	c #D1D1D1",
"2 	c #666666",
"3 	c #D5D5D5",
"4 	c #E0E0E0",
"5 	c #C6C6C6",
"6 	c #ECECEC",
"7 	c #747474",
"8 	c #0C0C0C",
"9 	c #E8E8E8",
"0 	c #6C6C6C",
"a 	c #3B3B3B",
"b 	c #F2F2F2",
"c 	c #D6D6D6",
"d 	c #676767",
"e 	c #434343",
"f 	c #2B2B2B",
"g 	c #292929",
"h 	c #303030",
"i 	c #4B4B4B",
"j 	c #727272",
"k 	c #A7A7A7",
"l 	c #E9E9E9",
"m 	c #E3E3E3",
"n 	c #7C7C7C",
"o 	c #222222",
"p 	c #010101",
"q 	c #F3F3F3",
"r 	c #E1E1E1",
"s 	c #616161",
"t 	c #040404",
"u 	c #121212",
"v 	c #878787",
"w 	c #F4F4F4",
"x 	c #898989",
"y 	c #0A0A0A",
"z 	c #1F1F1F",
"A 	c #E6E6E6",
"B 	c #3F3F3F",
"C 	c #6E6E6E",
"D 	c #FAFAFA",
"E 	c #D3D3D3",
"F 	c #1E1E1E",
"G 	c #424242",
"H 	c #D2D2D2",
"I 	c #050505",
"J 	c #3A3A3A",
"K 	c #6D6D6D",
"L 	c #8E8E8E",
"M 	c #9C9C9C",
"N 	c #626262",
"O 	c #2A2A2A",
"P 	c #353535",
"Q 	c #EEEEEE",
"R 	c #DDDDDD",
"S 	c #181818",
"T 	c #EFEFEF",
"U 	c #828282",
"V 	c #1A1A1A",
"W 	c #414141",
"X 	c #F7F7F7",
"Y 	c #2E2E2E",
"Z 	c #ABABAB",
"` 	c #FEFEFE",
" .	c #090909",
"..	c #696969",
"+.	c #555555",
"@.	c #F1F1F1",
"#.	c #2D2D2D",
"$.	c #BFBFBF",
"%.	c #7A7A7A",
"&.	c #151515",
"*.	c #767676",
"=.	c #3D3D3D",
"-.	c #A5A5A5",
";.	c #505050",
">.	c #EBEBEB",
",.	c #080808",
"'.	c #C3C3C3",
").	c #C0C0C0",
"!.	c #020202",
"~.	c #515151",
"{.	c #E4E4E4",
"].	c #A3A3A3",
"^.	c #1D1D1D",
"/.	c #A2A2A2",
"(.	c #5F5F5F",
"_.	c #8A8A8A",
":.	c #393939",
"<.	c #ADADAD",
". . . . . . . . . . . . . . . . . . . . . . . . . . . . . . . . . . . . . . . . ",
". . . . . . . . . . . . . . . . . . . . . . . . . . . . . . . . . . . . . . . . ",
". . . . . . . . . . . . . . . . . . . . . . . . . . . . . . . . . . . . . . . . ",
". . . . . . . . . . . . . . . . . . . . . . . . . . . . . . . . . . . . . . . . ",
". . . . . . . . . . . . . . . . . + . . . . . . . . . . . . . . . . . . . . . . ",
". . . . . . . . . . . . . . . @ # $ . . . . . . . . . . . . . . . . . . . . . . ",
". . . . . . . . . . . . . % & * = - . . . . . . . . . . . . . . . . . . . . . . ",
". . . . . . . . . . . + ; > = = = - , ' ' ' ' ) . . . ! ' ' ' ' ~ . . . . . . . ",
". . . . . . . . . { ] ^ = = = = = - / = = = = ( . . . _ = = = = ; . . . . . . . ",
". . . . . . . . . @ : < = = = = = - / = = = = ( . . . _ = = = = ; . . . . . . . ",
". . . . . . . . . . . [ } | = = = - 1 2 2 2 2 3 . . . 4 2 2 2 2 5 . . . . . . . ",
". . . . . . . . . . . . . 6 7 8 = - . . . . . . . . . . . . . . . . . . . . . . ",
". . . . . . . . . . . . . . . 9 0 a . . . . . . . . . . . . . . . . . . . . . . ",
". . . . . . . . . . . . . . . . . b . . . . . . . . . . . . . . . . . . . . . . ",
". . . . . . . . . . . . . . . . . . . . . . . . . . . . . . . . . . . . . . . . ",
". . . . . . . . . . . . . . . . . . . . . . . . . . . . . . . . . . . . . . . . ",
". . . . . . . . . . . . . . . . . . . . . . . . . . . . . . . . . . . . . . . . ",
". . . . . . . . . . . . . . . . . . . . . . . . . . . . . . . . . . . . . . . . ",
". . . . . . . . . . . . . . . . . . . . . . . . . . . . . . . . . . . . . . . . ",
". . . . . . . . . . . . . . c & d e f > g h i j k l . . . . . . . . . . . . . . ",
". . . . . . . . . . . m n o = = = = = = = = = = = p a & q . . . . . . . . . . . ",
". . . . . . . . . r s t = = = = = = = = = = = = = = = = u v w . . . . . . . . . ",
". . . . . . . + x y = = = = = = = = = = = = = = = = = = = = z / . . . . . . . . ",
". . . . . . A B = = = = = = = = = = = = = = = = = = = = = = = p C D . . . . . . ",
". . . . . E F = = = = = = = = = = = = = = = = = = = = = = = = = = G [ . . . . . ",
". . . . H < = = = = = = = = = I J K L M M : N O p = = = = = = = = = P Q . . . . ",
". . . R S = = = = = = = = h M T . . . . . . . . 4 U V = = = = = = = = W X . . . ",
". . @ Y = = = = = = = F Z ` . . . . . . . . . . . . X :  .= = = = = = = d . . . ",
". . ..= = = = = = = +.@.. . . . . . . . . . . . . . . . c #.= = = = = = = Z . . ",
". $.p = = = = = = %.` . . . . . . . . . . . . . . . . . . b e = = = = = = &.Q . ",
"{ Y = = = = = = *.. . . . . . . . . . . . . . . . . . . . . X =.= = = = = = C . ",
"-.= = = = = = ;.` . . . . . . . . . . . . . . . . . . . . . . >.z = = = = = ,.r ",
"'.h = = = = S 6 . . . . . . . . . . . . . . . . . . . . . . . . ).!.= = = p ~.{.",
". { ].^.= = /.. . . . . . . . . . . . . . . . . . . . . . . . . . (.= = a 5 . . ",
". . . X _.:.{ . . . . . . . . . . . . . . . . . . . . . . . . . . r #.<.. . . . ",
". . . . . ` . . . . . . . . . . . . . . . . . . . . . . . . . . . . ` . . . . . ",
". . . . . . . . . . . . . . . . . . . . . . . . . . . . . . . . . . . . . . . . ",
". . . . . . . . . . . . . . . . . . . . . . . . . . . . . . . . . . . . . . . . ",
". . . . . . . . . . . . . . . . . . . . . . . . . . . . . . . . . . . . . . . . ",
". . . . . . . . . . . . . . . . . . . . . . . . . . . . . . . . . . . . . . . . "};
